<?xml version="1.0" encoding="utf-8"?>
<!-- Generator: Adobe Illustrator 19.2.1, SVG Export Plug-In . SVG Version: 6.00 Build 0)  -->
<svg version="1.1" id="Ebene_1" xmlns="http://www.w3.org/2000/svg" xmlns:xlink="http://www.w3.org/1999/xlink" x="0px" y="0px"
	 viewBox="0 0 302.8 121" style="enable-background:new 0 0 302.8 121;" xml:space="preserve">
<style type="text/css">
	.st0{fill:#5F5F5F;}
</style>
<path class="st0" d="M269.7,68l2.6-7h4.6v12.1h-3.2v-7.9h-0.1l-2.6,7.9h-2.6l-2.6-7.9h-0.1v7.9h-3.2V61h4.6L269.7,68z M260,63.8
	h-3.2v9.3h-3.7v-9.3h-3.2V61H260L260,63.8L260,63.8z"/>
<rect x="234.6" y="61" class="st0" width="11.5" height="48.2"/>
<path class="st0" d="M205.2,88.1c0.7-4.3,3.4-7.2,7.4-7.2c3.8,0,6.6,3.2,6.8,7.2H205.2L205.2,88.1z M212.7,73.2
	c-10.3,0-18.9,7.7-18.9,18.4c0,11.7,7.8,18.6,19.2,18.6c7.8,0,15.3-3.5,17.4-11.6h-10.7c-1.1,2.6-3.8,3.8-6.6,3.8
	c-4.9,0-7.6-3.2-7.8-8H231C231.5,82.6,225.2,73.2,212.7,73.2"/>
<path class="st0" d="M190.5,73.5c0.9,0,1.8,0.1,2.7,0.3v10.5c-1.5-0.4-2.8-0.7-4.4-0.7c-5.7,0-8.7,3.9-8.7,8.3v17.4h-11.5V74.2h11.1
	v6.1h0.1C181.6,75.9,185.5,73.5,190.5,73.5"/>
<path class="st0" d="M145.7,103.2c-2.6,0-4.8-1.1-4.8-4c0-2.8,2.2-3.9,4.7-4.5c2.5-0.7,5.5-0.9,7.1-1.9
	C153,100.1,151.2,103.2,145.7,103.2 M163.8,93.5v-8.6c0-9.9-8-11.8-16.4-11.8c-4,0-8,0.7-11.1,2.4c-3.1,1.8-5.3,4.8-5.5,9.4h10.7
	c0.5-3,2.6-4.4,5.7-4.4c2.4,0,5.5,1,5.5,3.6c0,2.2-1.1,2.8-3,3.2c-8,1.6-20.4,0.7-20.4,12.2c0,7.2,5.3,10.6,12,10.6
	c4.2,0,8.6-1.2,11.6-4.3c0.1,1.2,0.3,2.2,0.7,3.3h10.2v-9L163.8,93.5L163.8,93.5z"/>
<path class="st0" d="M108.8,101.5c-5.2,0-7-4-7-10.1c0-7.2,3.9-9.4,7-9.4c5.1,0,6.8,4.9,6.8,9.4C115.7,96.1,114,101.5,108.8,101.5
	 M111.5,73.2c-4.1,0-7.4,1.7-9.7,5.1h-0.1v-4H90.8V121h11.5v-15.6h0.1c2.4,3.2,5.7,4.8,10,4.8c9.9,0,14.8-8.6,14.8-17.8
	C127.2,82.6,122.5,73.2,111.5,73.2"/>
<path class="st0" d="M69.2,101.5c-5.2,0-7-4-7-10.1c0-7.2,3.9-9.4,7-9.4c5.1,0,6.8,4.9,6.8,9.4C76.1,96.1,74.3,101.5,69.2,101.5
	 M71.9,73.2c-4,0-7.4,1.7-9.7,5.1h-0.1v-4H51.2V121h11.5v-15.6h0.1c2.4,3.2,5.7,4.8,10,4.8c9.9,0,14.8-8.6,14.8-17.8
	C87.6,82.6,82.9,73.2,71.9,73.2"/>
<path class="st0" d="M18.9,91.3l5.5-16.9h0.1l5.3,16.9H18.9z M18.1,61L0,109.2h12.9l3-8.7h16.8l3,8.7h13.1L30.8,61H18.1L18.1,61z"/>
<path class="st0" d="M302.8,25.7v22.5h-11.5v-17c0-4.8,0.5-9.7-5.7-9.7c-4.3,0-6.2,3.7-6.2,7.5v19.1h-11.5V13.2H279V18h0.1
	c2.1-3.6,6.8-5.8,11-5.8C301.9,12.2,302.8,20.7,302.8,25.7"/>
<path class="st0" d="M245.8,42.2c-2.6,0-4.8-1.1-4.8-4c0-2.8,2.2-3.9,4.7-4.5c2.5-0.7,5.5-0.9,7.1-1.9
	C253.1,39.1,251.3,42.2,245.8,42.2 M264,23.9c0-9.9-8-11.8-16.4-11.8c-4,0-8,0.7-11.1,2.4c-3.1,1.8-5.3,4.8-5.5,9.4h10.7
	c0.5-3,2.6-4.4,5.7-4.4c2.4,0,5.5,1,5.5,3.6c0,2.2-1.1,2.8-3,3.2c-8,1.6-20.4,0.7-20.4,12.2c0,7.2,5.3,10.6,11.9,10.6
	c4.2,0,8.6-1.2,11.6-4.3c0.1,1.2,0.3,2.2,0.7,3.3h10.2v-9L264,23.9z"/>
<path class="st0" d="M216.1,34.5h11.2c-1,9.4-8.3,14.8-17.6,14.8c-10.5,0-18.4-7.2-18.4-18c0-11.1,7.1-19.1,18.4-19.1
	c8.7,0,16.5,4.6,17.3,13.9h-11.2c-0.1-3-2.7-5.1-5.6-5.1c-6.4,0-7.4,5.5-7.4,10.3c0,4.5,2,9.2,6.8,9.2
	C213.6,40.5,215.6,38.2,216.1,34.5"/>
<rect x="176.7" y="13.2" class="st0" width="11.5" height="35.1"/>
<path class="st0" d="M170.9,12.5c0.9,0,1.8,0.1,2.7,0.3v10.5c-1.5-0.4-2.8-0.7-4.4-0.7c-5.7,0-8.6,3.9-8.6,8.3v17.4h-11.5V13.2h11.1
	v6.1h0.1C162,14.9,166,12.5,170.9,12.5"/>
<path class="st0" d="M120.1,27.1c0.7-4.3,3.4-7.2,7.4-7.2c3.8,0,6.6,3.2,6.8,7.2H120.1L120.1,27.1z M127.5,12.2
	c-10.3,0-18.9,7.7-18.9,18.4c0,11.7,7.8,18.6,19.2,18.6c7.8,0,15.3-3.5,17.4-11.6h-10.7c-1.1,2.6-3.8,3.8-6.6,3.8
	c-4.9,0-7.6-3.2-7.8-8h25.7C146.4,21.6,140.1,12.2,127.5,12.2"/>
<path class="st0" d="M105.5,27.3v20.9H94V27.6c0-3.8-1.8-6-4.8-6c-4.9,0-5.4,3.8-5.4,9.5v17.2H72.3v-20c0-4.1-1.2-6.7-4.3-6.7
	c-4.1,0-5.9,2.4-5.9,9.5v17.1H50.6v-35h11.1V18h0.1c2.1-3.5,5.8-5.8,10.1-5.8c4.4,0,8.3,1.4,10.2,5.7c2.8-3.7,6.2-5.7,10.9-5.7
	C104.3,12.2,105.5,20.6,105.5,27.3"/>
<path class="st0" d="M18.8,30.3l5.5-16.9h0.1l5.3,16.9C29.7,30.3,18.8,30.3,18.8,30.3z M18,0L0,48.2h12.9l3-8.7h16.8l3,8.7h13.1
	L30.8,0C30.8,0,18,0,18,0z"/>
<rect x="176.7" class="st0" width="11.5" height="8.7"/>
</svg>
