<?xml version="1.0" encoding="UTF-8" standalone="no"?>
<!-- Generator: Adobe Illustrator 16.0.0, SVG Export Plug-In . SVG Version: 6.00 Build 0)  -->
<!DOCTYPE svg  PUBLIC '-//W3C//DTD SVG 1.1//EN'  'http://www.w3.org/Graphics/SVG/1.1/DTD/svg11.dtd'>
<svg id="Lager_1" xmlns="http://www.w3.org/2000/svg" xml:space="preserve" height="60px" viewBox="0 0 223.116 60" width="223.12px" version="1.1" y="0px" x="0px" xmlns:xlink="http://www.w3.org/1999/xlink" enable-background="new 0 0 223.116 60">
<path d="m0.405 0.81h222.31l-0.404-0.405v59.191l0.404-0.405h-222.32l0.404 0.405v-59.191l-0.399 0.405zm0 59.19h222.72v-60h-223.12v60h0.405z" fill="#5F5F5F"/>
<rect y="4.019" x="4.019" height="51.967" width="34.639" fill="#5F5F5F"/>
<path d="m125.26 40.444l-0.377-0.469c-0.328 0.19-0.616 0.292-0.996 0.292-0.557 0-1.213-0.57-2.489-2.255 2.723-2.314 4.188-5.977 4.188-10.195 0-7.045-4.089-12.627-11.28-12.627-7.177 0-11.264 5.582-11.264 12.627 0 7.041 4.086 12.627 11.264 12.627 1.374 0 2.637-0.177 3.809-0.611 1.788 2.212 2.491 3.059 2.542 3.436 0 0.185-0.198 0.47-0.471 0.655l0.566 0.378 4.51-3.858zm-13.21-7.793c1.609 0.85 2.452 1.875 3.628 3.718-0.47 0.091-0.905 0.135-1.374 0.135-4.171 0-6.563-3.094-6.563-8.687 0-5.596 2.391-8.692 6.563-8.692 4.19 0 6.585 3.096 6.585 8.692 0 3.193-0.754 5.537-2.117 6.905-2.116-1.882-4.702-3.058-6.577-3.193l-0.15 1.122z" fill="#5F5F5F"/>
<path d="m66.109 53.027v-0.191c-0.123 0-0.249-0.087-0.249-0.351v-1.813h1.069l1.055 1.755c0.087 0.161 0.105 0.234 0.105 0.299 0 0.091-0.076 0.11-0.15 0.11v0.191h1.627v-0.191c-0.176-0.035-0.206-0.131-0.376-0.409l-1.119-1.875c0.82-0.073 1.495-0.855 1.495-1.633 0-1.091-0.645-1.838-2.053-1.838h-3.081v0.189c0.123 0 0.24 0.103 0.24 0.352v4.863c0 0.264-0.117 0.351-0.24 0.351v0.191h1.677zm-0.249-5.053h1.202c1.01 0 1.361 0.264 1.361 0.908 0 0.65-0.352 0.901-1.361 0.901h-1.202v-1.809z" fill="#5F5F5F"/>
<path d="m72.109 52.485c0 0.264-0.112 0.351-0.251 0.351v0.191h3.947c0.234 0 0.311 0.088 0.352 0.249h0.184v-1.526h-0.184c-0.041 0.224-0.117 0.325-0.352 0.325h-2.52v-1.641h1.523c0.23 0 0.305 0.063 0.352 0.293h0.178v-1.538h-0.178c-0.047 0.234-0.122 0.294-0.352 0.294h-1.523v-1.451h2.52c0.234 0 0.311 0.103 0.352 0.351h0.184v-1.538h-0.184c-0.041 0.162-0.117 0.236-0.352 0.236h-3.947v0.189c0.139 0 0.251 0.103 0.251 0.352v4.863z" fill="#5F5F5F"/>
<path d="m83.394 47.358c-0.043 0.069-0.206 0.191-0.293 0.191-0.1 0-0.264-0.132-0.577-0.257-0.301-0.126-0.726-0.285-1.387-0.285-1.768 0-2.871 1.318-2.871 3.061 0 1.641 1.172 3.047 2.842 3.047 1.29 0 2.193-0.6 2.543-1.04v-0.102c-0.112-0.03-0.175-0.074-0.175-0.174v-1.439c0-0.16 0.063-0.189 0.18-0.226v-0.184h-2.227c-0.133 0-0.234-0.058-0.283-0.219h-0.186v1.291h0.186c0.049-0.133 0.15-0.189 0.283-0.189h0.995v0.967c-0.377 0.225-0.73 0.364-1.141 0.364-1.143 0-1.89-0.939-1.89-2.036 0-1.07 0.601-2.174 1.753-2.174 0.827 0 1.377 0.39 1.377 0.691 0 0.049-0.009 0.12-0.024 0.186l0.161 0.066 0.865-1.43-0.131-0.109z" fill="#5F5F5F"/>
<path d="m85.919 52.185c0 0.526 0.405 0.93 0.927 0.93 0.502 0 0.913-0.404 0.913-0.93 0-0.525-0.41-0.912-0.913-0.912-0.522 0-0.927 0.387-0.927 0.912z" fill="#5F5F5F"/>
<path d="m93.706 48.268c0.029-0.133 0.118-0.235 0.351-0.235h1.175v4.453c0 0.264-0.12 0.351-0.208 0.351v0.191h1.586v-0.191c-0.063 0-0.18-0.087-0.18-0.351v-4.453h1.182c0.225 0 0.313 0.103 0.35 0.272h0.197v-1.459h-0.197c-0.037 0.132-0.125 0.236-0.35 0.236h-3.555c-0.233 0-0.322-0.104-0.351-0.236h-0.201v1.422h0.201z" fill="#5F5F5F"/>
<path d="m101.62 53.027v-0.191c-0.117 0-0.236-0.087-0.236-0.351v-1.813h1.056l1.055 1.755c0.091 0.161 0.117 0.234 0.117 0.299 0 0.091-0.076 0.11-0.15 0.11v0.191h1.615v-0.191c-0.163-0.035-0.206-0.131-0.363-0.409l-1.127-1.875c0.827-0.073 1.491-0.855 1.491-1.633 0-1.091-0.639-1.838-2.051-1.838h-3.077v0.189c0.117 0 0.234 0.103 0.234 0.352v4.863c0 0.264-0.117 0.351-0.234 0.351v0.191h1.664zm-0.24-5.053h1.202c1 0 1.351 0.264 1.351 0.908 0 0.65-0.351 0.901-1.351 0.901h-1.202v-1.809z" fill="#5F5F5F"/>
<path d="m108.21 53.027v-0.191c-0.085-0.02-0.115-0.11-0.115-0.233 0-0.228 0.293-0.908 0.365-1.172h1.979c0.099 0.383 0.381 0.981 0.381 1.195 0 0.085-0.057 0.152-0.156 0.21v0.191h1.621v-0.191c-0.194-0.02-0.234-0.195-0.323-0.475-0.622-1.765-1.725-4.827-1.725-4.929 0-0.073 0.056-0.13 0.101-0.161v-0.189h-1.678v0.189c0.051 0.044 0.109 0.103 0.109 0.196 0 0.137-1.638 4.823-1.758 5.136-0.03 0.108-0.059 0.198-0.154 0.233v0.191h1.35zm1.25-5.053h0.024l0.726 2.698h-1.531l0.78-2.698z" fill="#5F5F5F"/>
<path d="m115.42 48.032h1.055c1.143 0 1.788 0.486 1.788 2.027 0 1.533-0.645 2.016-1.788 2.016h-1.055v-4.043zm-1.18 4.453c0 0.264-0.113 0.351-0.251 0.351v0.191h2.629c1.804 0 2.781-1.054 2.781-2.968 0-1.924-0.978-2.978-2.781-2.978h-2.629v0.189c0.138 0 0.251 0.103 0.251 0.352v4.863z" fill="#5F5F5F"/>
<path d="m121.71 52.485c0 0.264-0.099 0.351-0.234 0.351v0.191h3.94c0.226 0 0.307 0.088 0.351 0.249h0.191v-1.526h-0.191c-0.043 0.224-0.125 0.325-0.351 0.325h-2.505v-1.641h1.504c0.225 0 0.312 0.063 0.35 0.293h0.196v-1.538h-0.196c-0.038 0.234-0.125 0.294-0.35 0.294h-1.504v-1.451h2.505c0.226 0 0.307 0.103 0.351 0.351h0.191v-1.538h-0.191c-0.043 0.162-0.125 0.236-0.351 0.236h-3.94v0.189c0.135 0 0.234 0.103 0.234 0.352v4.863z" fill="#5F5F5F"/>
<path d="m129.6 53.027v-0.191c-0.124 0-0.241-0.087-0.241-0.351v-4.16h0.03c0.511 1.625 1.262 3.207 1.864 4.702h0.187c0.664-1.578 1.376-3.091 2.015-4.76h0.028v4.218c0 0.264-0.126 0.351-0.273 0.351v0.191h1.597v-0.191c-0.147 0-0.272-0.087-0.272-0.351v-4.863c0-0.249 0.125-0.352 0.272-0.352v-0.189h-2.074v0.189c0.125 0.031 0.196 0.071 0.196 0.176 0 0.12-0.053 0.286-0.174 0.557l-1.3 2.968h-0.025l-1.249-2.968c-0.104-0.261-0.176-0.437-0.176-0.557 0-0.104 0.072-0.145 0.198-0.176v-0.189h-2.079v0.189c0.15 0 0.27 0.103 0.27 0.352v4.863c0 0.264-0.12 0.351-0.22 0.351v0.191h1.4z" fill="#5F5F5F"/>
<path d="m137.92 53.027v-0.191c-0.087-0.02-0.117-0.11-0.117-0.233 0-0.228 0.301-0.908 0.377-1.172h1.967c0.106 0.383 0.391 0.981 0.391 1.195 0 0.085-0.056 0.152-0.16 0.21v0.191h1.615v-0.191c-0.183-0.02-0.229-0.195-0.323-0.475-0.615-1.765-1.714-4.827-1.714-4.929 0-0.073 0.056-0.13 0.102-0.161v-0.189h-1.683v0.189c0.059 0.044 0.108 0.103 0.108 0.196 0 0.137-1.632 4.823-1.752 5.136-0.041 0.108-0.07 0.198-0.158 0.233v0.191h1.33zm1.26-5.053h0.02l0.731 2.698h-1.543l0.79-2.698z" fill="#5F5F5F"/>
<path d="m145.44 53.027v-0.191c-0.125 0-0.252-0.087-0.252-0.351v-1.813h1.078l1.052 1.755c0.093 0.161 0.099 0.234 0.099 0.299 0 0.091-0.063 0.11-0.142 0.11v0.191h1.622v-0.191c-0.165-0.035-0.21-0.131-0.37-0.409l-1.115-1.875c0.822-0.073 1.485-0.855 1.485-1.633 0-1.091-0.633-1.838-2.055-1.838h-3.077v0.189c0.117 0 0.241 0.103 0.241 0.352v4.863c0 0.264-0.124 0.351-0.241 0.351v0.191h1.68zm-0.26-5.053h1.21c1.013 0 1.362 0.264 1.362 0.908 0 0.65-0.349 0.901-1.362 0.901h-1.21v-1.809z" fill="#5F5F5F"/>
<path d="m152.81 53.027v-0.191c-0.127 0-0.247-0.087-0.247-0.351v-1.775l0.557-0.539 1.363 2.168c0.114 0.162 0.189 0.308 0.189 0.387 0 0.091-0.034 0.11-0.209 0.11v0.191h1.777v-0.191c-0.22-0.072-0.396-0.286-0.572-0.542l-1.875-2.812 2.031-2.016c0.064-0.076 0.182-0.165 0.342-0.196v-0.189h-1.788v0.189c0.104 0.021 0.161 0.044 0.161 0.103 0 0.073-0.102 0.161-0.252 0.318l-1.725 1.792v-1.861c0-0.249 0.12-0.352 0.219-0.352v-0.189h-1.676v0.189c0.153 0 0.271 0.103 0.271 0.352v4.863c0 0.264-0.117 0.351-0.271 0.351v0.191h1.71z" fill="#5F5F5F"/>
<rect y="4.019" x="184.08" height="51.967" width="34.65" fill="#5F5F5F"/>
<path d="m46.492 19.694c1.878 0 3.387-1.526 3.387-3.391 0-1.875-1.509-3.398-3.387-3.398-1.877 0-3.387 1.523-3.387 3.398 0 1.865 1.51 3.391 3.387 3.391zm0-0.519c-1.622 0-2.875-1.26-2.875-2.871 0-1.619 1.253-2.873 2.875-2.873s2.875 1.253 2.875 2.873c0.001 1.611-1.253 2.871-2.875 2.871zm-1.349-4.922v4.246h0.517v-1.902h0.833l0.837 1.902h0.557l-0.866-1.99c0.602-0.117 0.954-0.557 0.954-1.061 0-0.544-0.249-1.195-1.406-1.195h-1.426zm0.516 0.469h0.791c0.557 0 0.908 0.176 0.908 0.709 0 0.404-0.146 0.697-1.005 0.697h-0.694v-1.406z" fill="#5F5F5F"/>
<path d="m67.485 17.108c-0.43 0.279-0.762 0.426-1.036 0.426-0.371 0-1.041-0.562-2.157-1.172-1.136-0.615-2.683-1.172-4.836-1.172-6.016 0-11.834 4.131-11.834 12.861 0 6.67 4.131 12.393 11.264 12.393 6.053 0 7.516-3.281 8.599-3.281 0.276 0 0.557 0.183 0.792 0.469l0.38-0.422-3.954-5.115-0.558 0.176c0.088 0.235 0.187 0.805 0.187 0.996 0 1.553-2.353 3.238-4.976 3.238-4.176 0-7.047-3.472-7.047-8.453 0-6.387 2.725-8.926 7.236-8.926 2.434 0 4.688 1.511 4.688 3.194 0 0.137 0 0.335-0.037 0.47l0.417 0.194 3.105-5.64-0.233-0.236z" fill="#5F5F5F"/>
<path d="m71.968 38.287c0 0.805-0.234 1.076-1.319 1.22v0.659h16.348c1.084 0 1.463 0.139 1.599 0.844h0.658v-5.917h-0.658c-0.136 0.986-0.514 1.133-1.599 1.133h-10.334v-18.883c0-0.805 0.235-1.076 1.604-1.215v-0.666h-7.705v0.666c1.172 0.139 1.406 0.411 1.406 1.215v20.944z" fill="#5F5F5F"/>
<path d="m99.449 40.166v-0.659c-1.375-0.144-1.61-0.415-1.61-1.22v-20.944c0-0.805 0.235-1.076 1.61-1.215v-0.666h-7.897v0.666c1.363 0.139 1.598 0.411 1.598 1.215v20.944c0 0.805-0.234 1.076-1.598 1.22v0.659h7.897z" fill="#5F5F5F"/>
<path d="m128.72 15.462v0.666c1.084 0.139 1.319 0.411 1.319 1.215v13.814c0 5.625 2.773 9.287 9.768 9.287 7.001 0 9.771-3.662 9.771-9.287v-13.814c0-0.805 0.235-1.076 1.217-1.215v-0.666h-6.665v0.666c0.888 0.139 1.122 0.411 1.122 1.215v13.902c0 3.193-1.825 5.259-5.252 5.259-3.428 0-5.264-2.066-5.264-5.259v-13.902c0-0.805 0.234-1.076 1.132-1.215v-0.666h-7.16z" fill="#5F5F5F"/>
<path d="m160.51 29.458h6.004c1.09 0 1.457 0.146 1.604 0.759h0.66v-5.546h-0.66c-0.147 0.706-0.514 0.841-1.604 0.841h-6.004v-6.104h10.142c1.074 0 1.458 0.146 1.591 0.757h0.657v-5.545h-0.657c-0.133 0.706-0.518 0.841-1.591 0.841h-16.442v0.666c1.369 0.139 1.603 0.411 1.603 1.215v20.944c0 0.805-0.234 1.076-1.51 1.22v0.659h17.001c1.091 0 1.457 0.139 1.596 0.844h0.667v-5.634h-0.667c-0.14 0.703-0.505 0.85-1.596 0.85h-10.794v-6.767z" fill="#5F5F5F"/>
</svg>
