<?xml version="1.0" encoding="UTF-8" standalone="no"?>
<!-- Generator: Adobe Illustrator 16.0.0, SVG Export Plug-In . SVG Version: 6.00 Build 0)  -->
<!DOCTYPE svg  PUBLIC '-//W3C//DTD SVG 1.1//EN'  'http://www.w3.org/Graphics/SVG/1.1/DTD/svg11.dtd'>
<svg id="Layer_1" xmlns="http://www.w3.org/2000/svg" xml:space="preserve" height="60px" viewBox="0 0 243.334 60" width="243.33px" version="1.1" y="0px" x="0px" xmlns:xlink="http://www.w3.org/1999/xlink" enable-background="new 0 0 243.334 60">
<g fill="#5F5F5F">
	<path d="m25.884 4.908h-7.995c-9.554 0-14.271 2.392-15.89 12.509l-1.645 10.318c-1.624 10.123 2.334 12.517 11.878 12.517h12.631c10.645 0 13.557-4.576 14.481-10.399l0.449-3.263h-10.59c-0.69 4.296-2.206 4.789-6.971 4.789h-6.854c-5.014 0-5.752-1.924-4.956-6.942l0.603-3.721c0.68-4.295 2.147-6.927 7.735-6.927h7.089c2.838 0 4.495 0.583 4.506 2.515l-0.023 0.164h10.682v-0.188c0.069-1.016 0.094-1.639 0.094-2.534 0.282-6.755-2.536-8.838-15.224-8.838z"/>
	<path d="m75.522 26.46c4.387-1.274 5.702-4.062 6.432-8.82l0.328-2.243c0.961-6.373-0.293-10.542-7.312-10.542h-27.489l-5.341 35.468h9.552l1.387-9.203h12.746c2.842 0 3.557 1.22 3.003 4.954l-0.655 4.249h10.234l0.906-6.022c0.88-5.828-1.162-7.247-3.791-7.841zm-3.509-9.054l-0.19 1.174c-0.386 2.546-1.465 3.727-3.918 3.727h-13.489l1.292-8.629h12.677c2.866-0.001 4.084 0.594 3.628 3.728z"/>
	<polygon points="161.08 4.82 158.07 13.696 168.09 13.677 164.07 40.323 173.18 40.323 177.2 13.677 189.67 13.685 192.71 4.82"/>
	<polygon points="127.62 40.323 136.73 40.323 138.31 29.195 150.65 29.184 153.57 20.95 139.56 20.961 140.68 13.67 154.21 13.677 157.26 4.943 132.96 4.855"/>
	<path d="m102.02 4.855l-21.439 35.468h10.176l3.615-6.268h18.452l1.89 6.268h10.123l-10.96-35.468h-11.85zm-3.095 21.559l7.749-13.324 3.897 13.324h-11.645z"/>
	<path clip-rule="evenodd" d="m216.19 5.302c-0.481 2.396-2.822 3.949-5.213 3.472-2.39-0.481-3.948-2.815-3.466-5.212 0.481-2.404 2.812-3.958 5.201-3.475 2.41 0.484 3.97 2.82 3.48 5.215z" fill-rule="evenodd"/>
	<path clip-rule="evenodd" d="m229.49 16.674c-0.48 2.396-2.811 3.958-5.2 3.475-2.404-0.484-3.96-2.816-3.48-5.219 0.482-2.399 2.811-3.945 5.215-3.463 2.4 0.476 3.96 2.81 3.47 5.207z" fill-rule="evenodd"/>
	<path clip-rule="evenodd" d="m243.25 28.118c-0.481 2.404-2.812 3.946-5.214 3.465-2.402-0.479-3.957-2.811-3.479-5.202 0.48-2.408 2.813-3.956 5.228-3.478 2.38 0.482 3.94 2.812 3.46 5.215z" fill-rule="evenodd"/>
	<path clip-rule="evenodd" d="m229.9 33.846c-0.663 3.325-3.884 5.47-7.195 4.807-3.336-0.664-5.484-3.896-4.821-7.208 0.667-3.327 3.898-5.473 7.222-4.808 3.32 0.67 5.47 3.896 4.8 7.209z" fill-rule="evenodd"/>
	<path clip-rule="evenodd" d="m215.19 21.494c-0.673 3.312-3.894 5.465-7.209 4.8-3.323-0.665-5.478-3.901-4.806-7.213 0.666-3.32 3.899-5.468 7.221-4.8 3.32 0.662 5.47 3.888 4.8 7.213z" fill-rule="evenodd"/>
	<path clip-rule="evenodd" d="m213.17 40.352c-0.792 3.93-4.624 6.479-8.554 5.688-3.931-0.778-6.484-4.611-5.688-8.543 0.785-3.93 4.606-6.467 8.539-5.678 3.93 0.781 6.48 4.612 5.7 8.533z" fill-rule="evenodd"/>
</g>
	<g fill="#5F5F5F">
		<path d="m2.065 59.909h-1.711l1.099-8.975h5.951l-0.164 1.359h-4.237l-0.332 2.719h3.984l-0.165 1.306h-3.984l-0.441 3.591z"/>
		<path d="m11.231 60c-2.984 0-3.547-0.554-3.238-3.1l0.733-5.966h1.717l-0.713 5.808c-0.202 1.647 0.059 1.887 1.681 1.887h0.208c1.626 0 1.944-0.239 2.146-1.887l0.716-5.808h1.711l-0.733 5.966c-0.309 2.546-1.01 3.1-3.991 3.1h-0.237z"/>
		<path d="m24.819 59.909h-2.494l-3.01-7.499h-0.066l-0.882 7.499h-1.583l1.103-8.975h2.559l2.988 7.469h0.054l0.839-7.469h1.596l-1.104 8.975z"/>
		<path d="m30.101 60c-3.021 0-3.636-0.684-3.22-4.077l0.125-1.033c0.409-3.322 1.21-4.049 4.233-4.049h0.237c2.835 0 3.433 0.62 3.174 2.733l-0.044 0.354h-1.65l0.032-0.263c0.13-1.057-0.122-1.479-1.678-1.479h-0.185c-1.716 0-2.089 0.355-2.378 2.719l-0.122 0.987c-0.302 2.455 0.048 2.734 1.696 2.734h0.186c1.516 0 1.955-0.249 2.113-1.531l0.035-0.277h1.648l-0.052 0.421c-0.269 2.194-1.13 2.759-3.9 2.759h-0.25z"/>
		<path d="m39.324 59.909h-1.714l0.937-7.628h-2.639l0.166-1.346h6.992l-0.165 1.346h-2.641l-0.936 7.628z"/>
		<path d="m44.959 59.909h-1.716l1.104-8.975h1.715l-1.103 8.975z"/>
		<path d="m50.305 60c-3.113 0-3.726-0.804-3.327-4.063l0.127-1.03c0.399-3.261 1.21-4.065 4.324-4.065h0.277c3.114 0 3.728 0.805 3.327 4.065l-0.126 1.03c-0.4 3.259-1.211 4.063-4.325 4.063h-0.277zm0.419-1.371c1.729 0 2.156-0.369 2.447-2.734l0.12-0.974c0.291-2.364-0.047-2.733-1.775-2.733h-0.223c-1.743 0-2.158 0.369-2.448 2.733l-0.121 0.974c-0.289 2.365 0.035 2.734 1.777 2.734h0.223z"/>
		<path d="m64.001 59.909h-2.495l-3.01-7.499h-0.066l-0.88 7.499h-1.583l1.103-8.975h2.559l2.987 7.469h0.054l0.837-7.469h1.597l-1.103 8.975z"/>
		<path d="m73.845 59.909h-1.82l-0.361-1.888h-3.801l-0.825 1.888h-1.768l4.19-8.975h2.413l1.972 8.975zm-2.409-3.154l-0.902-4.58h-0.078l-2.068 4.58h3.048z"/>
		<path d="m80.762 59.909h-5.646l1.101-8.975h1.717l-0.936 7.615h3.931l-0.167 1.36z"/>
		<path d="m92.38 57.401c-0.255 2.071-0.939 2.599-3.5 2.599h-0.33c-3.218 0-3.613-0.423-3.358-2.507l0.051-0.423h1.609l-0.038 0.318c-0.134 1.079 0.131 1.292 1.755 1.292h0.249c1.491 0 1.779-0.198 1.906-1.228l0.021-0.17c0.112-0.896-0.098-1.125-2.047-1.282-2.757-0.211-3.161-0.79-2.944-2.545l0.026-0.211c0.216-1.771 0.915-2.403 3.446-2.403h0.345c2.902 0 3.322 0.554 3.094 2.429l-0.046 0.355h-1.595l0.035-0.278c0.116-0.949-0.115-1.214-1.594-1.214h-0.249c-1.386 0-1.691 0.213-1.802 1.124l-0.021 0.185c-0.102 0.817 0.072 1.016 2.032 1.175 2.781 0.235 3.21 0.725 2.986 2.547l-0.031 0.237z"/>
		<path d="m95.241 59.909h-1.689l1.103-8.975h3.707c2.704 0 3.268 0.476 2.979 2.823l-0.054 0.436c-0.29 2.348-1.049 2.839-3.596 2.839h-2.096l-0.357 2.877zm2.405-4.21c1.541 0 1.817-0.289 1.963-1.478l0.06-0.488c0.152-1.241-0.07-1.493-1.6-1.493h-1.885l-0.427 3.459h1.889z"/>
		<path d="m105.71 60c-3.114 0-3.727-0.804-3.329-4.063l0.129-1.03c0.398-3.261 1.21-4.065 4.323-4.065h0.279c3.112 0 3.727 0.805 3.326 4.065l-0.126 1.03c-0.4 3.259-1.21 4.063-4.326 4.063h-0.27zm0.41-1.371c1.729 0 2.158-0.369 2.448-2.734l0.12-0.974c0.29-2.364-0.049-2.733-1.778-2.733h-0.223c-1.742 0-2.157 0.369-2.447 2.733l-0.12 0.974c-0.29 2.365 0.034 2.734 1.776 2.734h0.22z"/>
		<path d="m118.44 59.909h-1.689l0.153-1.241c0.208-1.702 0.012-1.926-1.584-1.926h-1.874l-0.388 3.167h-1.69l1.104-8.975h4.103c2.44 0 2.893 0.62 2.651 2.587l-0.031 0.251c-0.172 1.398-0.631 2.017-1.551 2.204l-0.006 0.05c1.02 0.187 1.204 0.619 0.992 2.353l-0.18 1.53zm-2.6-4.436c1.122 0 1.479-0.329 1.615-1.438l0.035-0.29c0.161-1.307-0.105-1.506-1.464-1.506h-2.032l-0.397 3.233h2.23z"/>
		<path d="m123.96 59.909h-1.716l0.938-7.628h-2.638l0.165-1.346h6.993l-0.167 1.346h-2.639l-0.92 7.628z"/>
		<path d="m135.18 57.401c-0.251 2.07-0.939 2.599-3.497 2.599h-0.33c-3.219 0-3.618-0.423-3.36-2.507l0.052-0.423h1.61l-0.041 0.318c-0.13 1.079 0.133 1.292 1.754 1.292h0.252c1.491 0 1.778-0.198 1.906-1.228l0.02-0.17c0.109-0.896-0.102-1.125-2.047-1.282-2.757-0.211-3.161-0.79-2.945-2.545l0.025-0.211c0.216-1.771 0.914-2.403 3.448-2.403h0.342c2.904 0 3.326 0.554 3.094 2.429l-0.044 0.355h-1.596l0.032-0.278c0.117-0.949-0.114-1.214-1.59-1.214h-0.253c-1.383 0-1.688 0.213-1.798 1.124l-0.023 0.185c-0.101 0.817 0.073 1.016 2.032 1.175 2.781 0.235 3.209 0.725 2.985 2.547v0.237z"/>
		<path d="m145.65 59.909h-2.138l-0.796-7.38h-0.026l-2.606 7.38h-2.151l-1.047-8.975h1.711l0.642 7.563h0.041l2.67-7.563h1.939l0.826 7.563h0.039l2.459-7.563h1.676l-3.23 8.975z"/>
		<path d="m155.33 59.909h-6.23l1.103-8.975h6.148l-0.163 1.319h-4.431l-0.296 2.415h4.156l-0.155 1.269h-4.156l-0.325 2.625h4.513l-0.16 1.347z"/>
		<path d="m165.01 59.909h-1.82l-0.361-1.888h-3.8l-0.825 1.888h-1.771l4.188-8.975h2.413l1.98 8.975zm-2.41-3.154l-0.905-4.58h-0.079l-2.063 4.58h3.04z"/>
		<path d="m173.35 59.909h-1.688l0.152-1.241c0.211-1.702 0.011-1.926-1.584-1.926h-1.873l-0.39 3.167h-1.688l1.101-8.975h4.103c2.441 0 2.896 0.62 2.654 2.587l-0.034 0.251c-0.172 1.398-0.631 2.017-1.547 2.204l-0.009 0.05c1.021 0.187 1.202 0.619 0.991 2.353l-0.18 1.53zm-2.59-4.436c1.118 0 1.476-0.329 1.614-1.438l0.033-0.29c0.164-1.307-0.105-1.506-1.464-1.506h-2.031l-0.394 3.233h2.24z"/>
	</g>
</svg>
