<?xml version="1.0" encoding="UTF-8" standalone="no"?>
<!-- Generator: Adobe Illustrator 16.0.0, SVG Export Plug-In . SVG Version: 6.00 Build 0)  -->
<!DOCTYPE svg  PUBLIC '-//W3C//DTD SVG 1.1//EN'  'http://www.w3.org/Graphics/SVG/1.1/DTD/svg11.dtd'>
<svg id="Ebene_1" xmlns="http://www.w3.org/2000/svg" xml:space="preserve" height="60px" viewBox="0 0 908.551 60" width="908.55px" version="1.1" y="0px" x="0px" xmlns:xlink="http://www.w3.org/1999/xlink" enable-background="new 0 0 908.551 60">
<g fill="#5F5F5F" clip-rule="evenodd" fill-rule="evenodd">
	<path d="m622.03 59.999v-59.999h19.579c0.476 0.471 0.928 1.029 1.466 1.409 20.668 14.054 41.308 28.068 61.98 42.08 1.776 1.228 3.632 2.44 5.745 3.846v-47.334h20.211v59.999h-17.754c-23.725-15.81-47.448-31.586-71.648-47.718v47.718c-6.52-0.001-13.07-0.001-19.58-0.001z"/>
	<path d="m523.47 0c5.576 1 11.209 1.787 16.719 3.109 2.921 0.702 5.799 2.02 8.321 3.634 7.736 4.973 7.897 13.459 0.406 18.793-5.935 4.231-12.894 5.813-19.979 6.922-1.182 0.18-2.401 0.347-4.296 0.598 1.193 1.047 1.992 1.742 2.77 2.386 9.374 7.503 18.751 15.003 28.122 22.509 0.77 0.637 1.467 1.353 2.216 2.049h-20.209c-10.42-8.496-20.804-16.993-31.23-25.481-0.459-0.354-1.063-0.703-1.634-0.704-8.732-0.054-17.465-0.014-26.539-0.014v26.199h-19.578v-59.999c21.62-0.001 43.25-0.001 64.91-0.001zm-45.17 26.241c13.118 0 25.953 0.314 38.738-0.165 5.908-0.231 11.815-1.831 17.567-3.33 2.693-0.67 4.751-2.813 4.748-6.048-0.003-3.277-2.229-5.125-4.862-6.004-3.741-1.236-7.631-2.515-11.535-2.634-14.428-0.445-28.897-0.442-43.363-0.593-0.366-0.001-0.765 0.116-1.293 0.185-0.01 6.177-0.01 12.228-0.01 18.589z"/>
	<path d="m787.32 59.999c11.083-13.298 22.162-26.599 33.284-39.887 5.63-6.716 11.27-13.404 16.93-20.112h19.581c11.96 13.91 23.911 27.837 35.916 41.725 5.107 5.922 10.323 11.775 15.521 17.643-0.521 0.223-1.04 0.585-1.526 0.621-6.028 0.017-12.058 0.011-18.087 0.011-2.987-3.74-5.916-7.5-9.021-11.13-0.593-0.704-1.88-1.17-2.833-1.171-19.449-0.062-38.897-0.061-58.347-0.005-0.894 0.001-2.159 0.298-2.688 0.937-3.121 3.7-6.104 7.562-9.146 11.369-6.5-0.001-13.05-0.001-19.57-0.001zm85.5-20.031c-8.45-10.372-16.526-20.235-24.79-30.363-8.392 10.155-16.583 20.048-25.13 30.363h49.92z"/>
	<path d="m87.543 0v7.298h-67.71v18.956h46.673v7.438h-46.731v18.857h67.769v7.449h-87.543c-0.001-19.987-0.001-40.005-0.001-59.998h87.543z"/>
	<path d="m303.65 59.999v-59.999h87.571v7.298h-67.727v18.956h46.688v7.438h-46.748v18.857h67.786v7.449c-29.18 0.001-58.36 0.001-87.57 0.001z"/>
	<path d="m240.6 0v7.383h-37.96v52.616h-19.593v-52.406h-37.948v-7.593h95.5z"/>
</g>
</svg>
