<?xml version="1.0" encoding="UTF-8" standalone="no"?>
<!-- Generator: Adobe Illustrator 19.1.0, SVG Export Plug-In . SVG Version: 6.00 Build 0)  -->
<svg id="Ebene_1" style="enable-background:new 0 0 256.8 170.1" xmlns="http://www.w3.org/2000/svg" xml:space="preserve" viewBox="0 0 256.8 170.1" version="1.1" y="0px" x="0px" xmlns:xlink="http://www.w3.org/1999/xlink">
<style type="text/css">
	.st0{fill:#5F5F5F;}
	.st1{fill:#121212;}
	.st2{fill-rule:evenodd;clip-rule:evenodd;fill:#5F5F5F;}
	.st3{fill:none;stroke:#5F5F5F;stroke-width:1.2166;stroke-miterlimit:3.864;}
	.st4{fill-rule:evenodd;clip-rule:evenodd;fill:#121212;}
</style>
	<path class="st0" d="m0 85c0-47 57.5-85 128.4-85s128.4 38.1 128.4 85c0 47-57.5 85-128.4 85-70.9 0.1-128.4-38-128.4-85"/>
	<path class="st1" d="m91.1 16.3c-45.2 9.9-78.1 37.1-78.1 69.1 0 40.3 51.8 73 115.7 73s115.7-32.7 115.7-73c0-32.1-32.9-59.4-78.6-69.1-3.7 17.3-19.1 30.3-37.6 30.3-18.4-0.1-33.3-13-37.1-30.3"/>
		<path class="st0" d="m21.9 98c0.4 0.6 0.8 0.9 1.1 1s0.9-0.1 1.7-0.6l6.3-3.5c0.6-0.3 0.9-0.6 0.9-0.9 0.1-0.3 0-0.7-0.4-1.4l0.3-0.2 1.7 3.1-5.8 7.9 9.7-0.9 1.7 3.1-0.3 0.2c-0.4-0.6-0.7-0.9-0.9-0.9-0.3-0.1-0.7 0-1.2 0.3l-6.9 3.8c-0.6 0.3-0.9 0.6-0.9 0.9-0.1 0.3 0 0.7 0.3 1.3l-0.3 0.2-2.4-4.3 0.3-0.2c0.4 0.6 0.7 0.9 1 1s0.7-0.1 1.4-0.5l6.9-3.9-11 0.9-0.1-0.2 6.3-8.6-6.2 3.4c-0.8 0.5-1.3 0.9-1.4 1.3-0.1 0.3 0 0.7 0.3 1.3l-0.3 0.2-2-3.6 0.2-0.2"/>
		<path class="st2" d="m44.9 107.6c0.2 0 0.4 0.1 0.6 0.3s0.3 0.4 0.2 0.6c0 0.2-0.1 0.5-0.3 0.6-0.2 0.2-0.4 0.2-0.6 0.2s-0.4-0.1-0.6-0.3-0.2-0.4-0.2-0.6 0.1-0.4 0.3-0.6c0.2-0.1 0.4-0.2 0.6-0.2m2.4 4.3c-0.2 0-0.4-0.1-0.6-0.3s-0.2-0.4-0.2-0.6 0.1-0.4 0.3-0.6 0.4-0.3 0.6-0.2c0.2 0 0.4 0.1 0.6 0.3s0.3 0.4 0.2 0.6c0 0.2-0.1 0.4-0.3 0.6-0.1 0.1-0.3 0.2-0.6 0.2zm-3.4-1.6l-0.2 0.2c-0.5-0.5-0.9-0.7-1.2-0.7s-0.6 0.2-1.1 0.6l-4.1 3.9c-0.7 0.6-1.1 1.2-1.3 1.8-0.4 1-0.1 2 0.8 2.9 1 1 2 1.4 3.1 1.1 0.6-0.2 1.3-0.7 2.1-1.4l3.3-3.2c0.7-0.7 1-1.2 1.1-1.5 0-0.3-0.2-0.8-0.6-1.3l0.2-0.2 2.8 2.9-0.2 0.2c-0.5-0.4-1-0.6-1.3-0.6s-0.8 0.4-1.5 1l-3.3 3.2c-0.9 0.8-1.7 1.4-2.4 1.6-1.4 0.4-2.8-0.1-4.1-1.5s-1.8-2.7-1.4-4.1c0.2-0.7 0.7-1.5 1.5-2.2l4-3.8c0.5-0.4 0.7-0.8 0.7-1.1s-0.2-0.7-0.6-1.2l0.2-0.2 3.5 3.6z"/>
		<path class="st0" d="m42.9 125c0.6 0.4 1.1 0.5 1.4 0.4s0.7-0.5 1.3-1.3l4.5-6.4v-0.4c0-0.4-0.1-0.7-0.2-0.8-0.1-0.2-0.3-0.4-0.6-0.6l0.2-0.3 2.5 1.7 0.7 10.9 3.4-4.8c0.6-0.8 0.8-1.4 0.7-1.8 0-0.3-0.3-0.6-0.8-1l0.2-0.3 3.4 2.4-0.2 0.3c-0.6-0.3-1.1-0.5-1.4-0.4s-0.8 0.5-1.3 1.3l-5.3 7.6-0.2-0.2-1-12.3-4 5.6c-0.6 0.8-0.8 1.4-0.7 1.8 0 0.3 0.3 0.6 0.8 1l-0.2 0.3-3.4-2.4 0.2-0.3"/>
		<path class="st0" d="m56.7 130.5c-0.1 0.8-0.1 1.6 0 2.2 0.2 1.1 0.8 1.8 1.7 2.3 0.5 0.3 1 0.3 1.5 0.2s1-0.5 1.3-1 0.3-1 0.2-1.6c-0.1-0.4-0.4-1-0.9-1.9l-0.9-1.5c-0.3-0.5-0.4-0.9-0.6-1.3-0.2-0.7-0.1-1.4 0.2-2 0.4-0.8 1-1.3 1.8-1.6 0.8-0.2 1.6-0.1 2.5 0.3 0.4 0.2 0.7 0.5 1.1 0.9l0.7 0.7c0.2 0.1 0.3 0.1 0.5 0.1 0.1 0 0.2-0.1 0.4-0.3l0.3 0.2-1.4 3.5-0.4-0.2c0.3-1.1 0.2-2.1-0.1-2.7-0.3-0.7-0.8-1.2-1.3-1.5-0.4-0.2-0.9-0.3-1.3-0.2s-0.8 0.3-1 0.8c-0.2 0.4-0.3 0.8-0.2 1.2s0.3 0.9 0.7 1.5l0.9 1.6c0.6 1 0.9 1.8 1 2.4s0 1.3-0.3 1.9c-0.4 0.8-1.1 1.3-2 1.6-0.9 0.2-1.8 0.1-2.8-0.4-0.5-0.3-0.9-0.6-1.4-1.1-0.4-0.5-0.7-0.7-0.8-0.8-0.2-0.1-0.3-0.1-0.5 0l-0.3 0.3-0.3-0.2 1.3-3.6 0.4 0.2"/>
		<path class="st0" d="m68.7 127.7l9.2 3.9-1.1 2.8-0.4-0.2c0.2-1 0.2-1.6 0-2s-0.7-0.8-1.7-1.2l-0.9-0.4-3.5 8.3c-0.3 0.6-0.3 1.1-0.2 1.3s0.5 0.5 1.2 0.8l-0.1 0.3-4.7-2 0.1-0.3c0.7 0.2 1.2 0.3 1.4 0.2s0.5-0.5 0.8-1.2l3.5-8.1-0.9-0.4c-0.9-0.4-1.6-0.5-2-0.4s-0.9 0.6-1.5 1.4l-0.4-0.2 1.2-2.6"/>
		<path class="st0" d="m76.2 143c0.6 0.1 1.1 0.1 1.3 0s0.5-0.5 0.6-1.1l2.3-7.5c0.2-0.6 0.2-1 0.1-1.3-0.1-0.2-0.5-0.5-1.1-0.7l0.1-0.3 9 2.7-0.7 2.4-0.4-0.1c0.1-0.8 0-1.3-0.2-1.7-0.2-0.3-0.8-0.6-1.8-0.9l-2.3-0.7c-0.2-0.1-0.4-0.1-0.5 0s-0.1 0.2-0.2 0.4l-1.2 3.8 2.6 0.8c0.7 0.2 1.2 0.3 1.5 0.1s0.6-0.5 0.9-1.2l0.4 0.1-1.2 3.9-0.4-0.1c0.1-0.7 0-1.2-0.1-1.4-0.1-0.3-0.6-0.5-1.3-0.7l-2.6-0.8-1.3 4.2c-0.1 0.3-0.1 0.6 0.1 0.7s0.8 0.3 1.9 0.7 2 0.5 2.6 0.4 1.3-0.5 2-1.4l0.5 0.1-1.6 2.6-9.1-2.8 0.1-0.2"/>
		<path class="st2" d="m87.7 146.6c0.7 0.1 1.1 0 1.3-0.1 0.2-0.2 0.4-0.6 0.5-1.3l1.6-7.5c0.1-0.6 0.1-1 0-1.2s-0.5-0.4-1.1-0.6l0.1-0.3 4.8 1c1 0.2 1.8 0.5 2.4 0.9 1.2 0.7 1.6 1.8 1.3 3-0.2 0.9-0.6 1.5-1.3 1.8s-1.5 0.5-2.5 0.4l2.6 5.1c0.2 0.3 0.3 0.6 0.5 0.7 0.2 0.2 0.5 0.3 0.8 0.4l-0.1 0.3-2.8-0.6-3-6.2-1-0.2-0.7 3.4c-0.1 0.6-0.1 1.1 0 1.3 0.2 0.2 0.6 0.4 1.2 0.6l-0.1 0.3-4.8-1 0.3-0.2m7.2-4.7c1-0.2 1.6-0.8 1.8-1.8s0-1.8-0.8-2.3c-0.4-0.3-1-0.5-1.7-0.7-0.5-0.1-0.8-0.1-0.9-0.1s-0.2 0.2-0.3 0.5l-0.9 4.3c1.3 0.1 2.2 0.2 2.8 0.1z"/>
		<path class="st0" d="m100.4 149.4c0.7 0 1.1-0.1 1.3-0.2s0.4-0.5 0.4-1.2l1-7.8c0.1-0.6 0-1-0.1-1.3-0.2-0.2-0.6-0.4-1.2-0.5v-0.3l5 0.6v0.3c-0.6 0-1.1 0-1.3 0.2s-0.4 0.5-0.5 1.1l-1 8.4v0.5c0.1 0.1 0.2 0.2 0.4 0.3 0.1 0 0.3 0.1 0.4 0.1s0.4 0.1 0.8 0.1c1.6 0.2 2.6 0.2 3.2 0s1.2-0.8 1.8-1.8l0.4 0.1-1.2 2.9-9.4-1.2v-0.3"/>
		<path class="st2" d="m111.6 151.2v-0.3c0.5 0 0.8-0.2 1-0.5s0.7-1.1 1.3-2.3l4.1-8.5h0.3l3.9 10.2c0.3 0.7 0.5 1.1 0.6 1.3 0.2 0.2 0.5 0.3 0.9 0.4v0.3l-4.5-0.2v-0.3c0.5 0 0.9-0.1 1-0.1 0.2-0.1 0.2-0.2 0.3-0.5 0-0.1 0-0.2-0.1-0.5 0-0.2-0.1-0.5-0.2-0.7l-0.6-1.7-4.6-0.2c-0.5 1.1-0.8 1.8-0.9 2.1-0.1 0.2-0.1 0.4-0.2 0.6 0 0.3 0.1 0.5 0.3 0.6 0.1 0.1 0.4 0.1 0.8 0.2v0.3l-3.4-0.2m7.9-4.2l-1.8-5-2.3 4.8 4.1 0.2z"/>
		<path class="st0" d="m124.9 151.6c0.7-0.1 1.2-0.3 1.4-0.5 0.2-0.3 0.3-0.9 0.3-1.8l-0.1-7.8-0.2-0.3c-0.3-0.3-0.5-0.5-0.7-0.5-0.2-0.1-0.5-0.1-0.8-0.1v-0.3l3-0.1 7 8.4-0.1-5.9c0-1-0.2-1.6-0.5-1.9-0.2-0.2-0.6-0.3-1.3-0.3v-0.3l4.2-0.1v0.3c-0.7 0.1-1.1 0.3-1.3 0.5-0.2 0.3-0.3 0.9-0.3 1.8l0.2 9.3h-0.3l-8-9.6 0.1 6.9c0 1 0.2 1.6 0.5 1.9 0.2 0.2 0.6 0.3 1.2 0.4v0.3l-4.2 0.1-0.1-0.4"/>
		<path class="st2" d="m138.9 151.3c0.6-0.1 1-0.3 1.2-0.5s0.2-0.6 0.2-1.3l-0.8-7.8c-0.1-0.6-0.2-1-0.4-1.2s-0.6-0.2-1.3-0.2v-0.3l4.7-0.5c1.6-0.2 3 0 4.1 0.4 2.1 0.7 3.3 2.3 3.5 4.8 0.1 0.9 0 1.7-0.3 2.6-0.3 0.8-0.7 1.5-1.4 2.2-0.4 0.4-0.9 0.7-1.3 0.9-0.9 0.4-2 0.7-3.3 0.8l-4.9 0.5v-0.4m3.5-0.9c0.2 0.1 0.4 0.1 0.9 0 1.4-0.1 2.5-0.5 3.3-1.2 1.3-1 1.8-2.5 1.6-4.5-0.2-1.8-0.9-3.1-2.1-3.9-1-0.7-2.4-0.9-3.9-0.8-0.4 0-0.7 0.1-0.8 0.2s-0.2 0.3-0.1 0.6l0.9 8.9c0 0.5 0.1 0.6 0.2 0.7z"/>
		<path class="st2" d="m158.1 138.4c0.8-1.3 2-2.1 3.6-2.4 1.5-0.4 2.9-0.1 4.2 0.6 1.4 0.8 2.4 2.2 2.8 4 0.3 1.5 0.3 2.8-0.3 4-0.6 1.3-1.5 2.2-3 2.9 0.9 0.8 1.9 1.4 3 1.6 0.6 0.1 1.4 0.1 2.4 0l0.1 0.3-0.7 0.2c-0.9 0.2-1.8 0.3-2.5 0.3-0.8 0-1.5-0.1-2.1-0.2-0.7-0.2-1.3-0.5-1.9-0.9s-1-0.6-1-0.7l-0.2-0.1c-1.1-0.2-1.9-0.6-2.6-1-1.2-0.8-2-2.1-2.4-3.8-0.6-1.9-0.3-3.5 0.6-4.8m3.2 8.1c0.9 0.7 1.9 0.9 2.9 0.7s1.8-0.9 2.3-1.9 0.6-2.4 0.1-4.3c-0.4-1.9-1.1-3.2-2-3.8-0.9-0.7-1.9-0.9-2.9-0.7s-1.8 0.9-2.3 1.9-0.6 2.5-0.1 4.3c0.4 1.9 1.1 3.1 2 3.8z"/>
		<path class="st0" d="m172.7 132.9l0.1 0.3c-0.6 0.3-1 0.5-1.1 0.8-0.1 0.2-0.1 0.7 0.1 1.3l1.9 5.3c0.3 0.9 0.7 1.5 1.1 1.9 0.8 0.7 1.8 0.9 3 0.4 1.4-0.5 2.1-1.3 2.2-2.4 0.1-0.6-0.1-1.4-0.5-2.5l-1.6-4.3c-0.3-0.9-0.6-1.4-0.9-1.6s-0.8-0.2-1.4 0l-0.1-0.3 3.8-1.4 0.1 0.3c-0.6 0.3-1 0.6-1.1 0.9s0 0.9 0.3 1.8l1.6 4.3c0.4 1.1 0.6 2.1 0.4 2.9-0.2 1.4-1.2 2.5-3.1 3.1-1.8 0.7-3.2 0.5-4.3-0.4-0.6-0.5-1.1-1.3-1.4-2.3l-1.9-5.2c-0.2-0.6-0.5-1-0.7-1.1-0.3-0.1-0.7-0.1-1.3 0.1l-0.1-0.3 4.9-1.6"/>
		<path class="st2" d="m183.5 141.6l-0.1-0.3c0.4-0.2 0.6-0.5 0.7-0.9s0.1-1.3 0.1-2.7l-0.3-9.4 0.3-0.1 8.2 7.2c0.5 0.5 0.9 0.8 1.2 0.8 0.2 0.1 0.5 0 0.9-0.1l0.1 0.3-4.1 1.9-0.1-0.3c0.5-0.3 0.7-0.5 0.8-0.6s0.1-0.3 0-0.5c0-0.1-0.1-0.2-0.3-0.4-0.1-0.2-0.3-0.3-0.5-0.5l-1.4-1.2-4.2 2c0.1 1.2 0.1 2 0.1 2.3s0.1 0.5 0.1 0.6c0.1 0.3 0.3 0.4 0.6 0.4 0.2 0 0.4-0.1 0.8-0.2l0.1 0.3-3 1.4m5-7.3l-3.9-3.6 0.2 5.3 3.7-1.7z"/>
		<path class="st0" d="m196 135.3c0.5-0.4 0.8-0.7 0.9-0.9s0-0.7-0.4-1.2l-3.9-6.8c-0.3-0.5-0.6-0.9-0.9-0.9-0.3-0.1-0.7 0-1.3 0.3l-0.2-0.3 4.3-2.5 0.2 0.3c-0.5 0.4-0.9 0.7-1 0.9-0.1 0.3 0 0.6 0.3 1.2l4.2 7.4c0.1 0.2 0.2 0.3 0.3 0.4s0.3 0 0.5 0c0.1-0.1 0.2-0.1 0.4-0.2 0.1-0.1 0.4-0.2 0.7-0.4 1.4-0.8 2.2-1.4 2.6-1.9 0.3-0.5 0.5-1.3 0.4-2.5l0.4-0.2 0.8 3.1-8.2 4.8-0.1-0.6"/>
		<path class="st0" d="m206.2 129c0.5-0.5 0.9-0.8 0.9-1.1 0.1-0.3-0.1-0.7-0.5-1.2l-4.7-6.3c-0.4-0.5-0.7-0.8-1-0.8s-0.7 0.2-1.3 0.6l-0.2-0.3 4.2-3.1 0.2 0.3c-0.6 0.5-0.9 0.8-0.9 1.1-0.1 0.3 0.1 0.7 0.5 1.2l4.7 6.3c0.4 0.5 0.8 0.8 1 0.8 0.3 0 0.7-0.2 1.3-0.6l0.2 0.3-4.2 3.1-0.2-0.3"/>
		<path class="st0" d="m205.3 115.5l7.3-6.8 2.1 2.1-0.3 0.3c-0.8-0.5-1.4-0.8-1.8-0.8s-1 0.4-1.8 1.1l-0.7 0.7 6.2 6.6c0.5 0.5 0.8 0.7 1.1 0.7s0.7-0.3 1.2-0.7l0.2 0.2-3.8 3.5-0.2-0.2c0.5-0.6 0.8-1 0.8-1.2 0-0.3-0.3-0.7-0.8-1.2l-6-6.5-0.7 0.7c-0.7 0.7-1.1 1.2-1.2 1.7-0.1 0.4 0.2 1.1 0.7 1.9l-0.3 0.3-2-2.4"/>
		<path class="st2" d="m211.6 105.1c0-0.2 0-0.5 0.2-0.7 0.1-0.2 0.3-0.3 0.6-0.3 0.2 0 0.5 0 0.7 0.2 0.2 0.1 0.3 0.3 0.4 0.6 0 0.2 0 0.5-0.2 0.7-0.1 0.2-0.3 0.3-0.6 0.3-0.2 0-0.5 0-0.7-0.2-0.3-0.1-0.4-0.3-0.4-0.6m3.8-3.1c0 0.2 0 0.5-0.2 0.7-0.1 0.2-0.3 0.3-0.6 0.4-0.2 0-0.5 0-0.7-0.2-0.2-0.1-0.3-0.3-0.4-0.6 0-0.2 0-0.5 0.2-0.7 0.1-0.2 0.3-0.3 0.6-0.4 0.2 0 0.5 0 0.7 0.2s0.3 0.4 0.4 0.6zm5.8 14.7l-0.3-0.2c0.2-0.4 0.3-0.8 0.2-1.1-0.1-0.4-0.5-1.1-1.2-2.4l-4.9-8.1 0.2-0.3 10.7 2.3c0.7 0.2 1.2 0.2 1.4 0.2 0.2-0.1 0.5-0.2 0.8-0.5l0.3 0.2-2.6 3.6-0.3-0.2c0.3-0.4 0.4-0.7 0.5-0.9 0-0.2-0.1-0.3-0.3-0.5-0.1 0-0.2-0.1-0.4-0.2s-0.4-0.2-0.7-0.2l-1.8-0.4-2.7 3.7c0.7 1.1 1.1 1.7 1.2 1.9s0.3 0.4 0.4 0.5c0.2 0.2 0.5 0.2 0.7 0.1 0.1-0.1 0.4-0.3 0.6-0.6l0.3 0.2-2.1 2.9zm0.8-8.9l-5.1-1.2 2.8 4.5 2.3-3.3z"/>
		<path class="st0" d="m218.4 100.6l3.9-9.2 2.8 1.1-0.2 0.4c-0.9-0.2-1.6-0.2-2 0s-0.8 0.7-1.2 1.7l-0.4 0.9 8.3 3.5c0.6 0.3 1.1 0.3 1.3 0.2s0.5-0.5 0.8-1.2l0.3 0.1-2 4.7-0.3-0.1c0.2-0.7 0.3-1.2 0.2-1.4s-0.5-0.5-1.2-0.8l-8.1-3.5-0.4 0.9c-0.4 0.9-0.5 1.6-0.4 2s0.6 0.9 1.4 1.5l-0.2 0.4-2.6-1.2"/>
	<path class="st0" d="m207 87.1c-0.1 22.7-35.2 41-78.4 41s-78.3-18.4-78.4-41h156.8"/>
	<line y1="29" x2="51" x1="51" y2="85.5" class="st3"/>
	<line y1="26" x2="57.5" x1="57.5" y2="85.5" class="st3"/>
	<line y1="23.9" x2="63.9" x1="63.9" y2="85.5" class="st3"/>
	<line y1="21.4" x2="70.4" x1="70.4" y2="61.9" class="st3"/>
	<line y1="19.1" x2="76.6" x1="76.6" y2="53.7" class="st3"/>
	<line y1="16.8" x2="83.4" x1="83.4" y2="53.7" class="st3"/>
	<line y1="15.2" x2="90" x1="90" y2="61.9" class="st3"/>
	<line y1="26" x2="96.2" x1="96.2" y2="60.8" class="st3"/>
	<line y1="33.6" x2="102.6" x1="102.6" y2="54.8" class="st3"/>
	<line y1="39.7" x2="109.1" x1="109.1" y2="54.8" class="st3"/>
	<line y1="42.8" x2="115.5" x1="115.5" y2="54.8" class="st3"/>
	<line y1="23.7" x2="193" x1="193" y2="85.5" class="st3"/>
	<line y1="21.4" x2="186.6" x1="186.6" y2="61.9" class="st3"/>
	<line y1="19.1" x2="180.4" x1="180.4" y2="53.7" class="st3"/>
	<line y1="16.8" x2="173.9" x1="173.9" y2="53.7" class="st3"/>
	<line y1="15.2" x2="167.1" x1="167.1" y2="61.9" class="st3"/>
	<line y1="26" x2="160.8" x1="160.8" y2="60.8" class="st3"/>
	<line y1="33.6" x2="154.4" x1="154.4" y2="54.8" class="st3"/>
	<line y1="39.7" x2="147.9" x1="147.9" y2="54.8" class="st3"/>
	<line y1="42.8" x2="141.3" x1="141.3" y2="54.8" class="st3"/>
	<line y1="44.3" x2="134.8" x1="134.8" y2="54.8" class="st3"/>
	<line y1="45.8" x2="128.5" x1="128.5" y2="53.7" class="st3"/>
	<path class="st1" d="m106.1 20.1v-0.7c0-0.3-0.1-0.4-0.6-0.6-0.6-0.2-1.3-0.3-1.5-0.3-0.5 0-0.7 0-0.9 0.1-0.2 0-0.7 0.1-1.2 0.4-0.8 0.4-1.3 1.2-1.3 2.1 0 0.7 0.3 1.5 1.5 2.4 0.2 0.1 0.4 0.3 0.7 0.4l1.1 0.6c0.3 0.2 0.9 0.5 0.9 1.4 0 0.5-0.2 1-0.6 1.3s-0.9 0.4-1.1 0.4-0.8 0-1.2-0.4c-0.2-0.1-0.3-0.3-0.3-0.8 0-0.3 0-0.6-0.3-0.8-0.1-0.1-0.1-0.1-0.2-0.1s-0.4 0.1-0.4 0.5v0.4 0.5 0.4c0 0.2 0 0.3 0.1 0.3 0.1 0.2 0.3 0.3 0.6 0.3 0.6 0.2 1.2 0.3 1.8 0.3 1.3 0 2-0.4 2.4-0.8 0.6-0.5 0.9-1.2 0.9-2 0-1.1-0.6-1.7-1.5-2.3-0.1-0.1-0.3-0.2-0.4-0.2l-1.4-0.9c-0.2-0.1-0.9-0.6-0.9-1.4 0-0.6 0.3-1.1 0.9-1.4 0.2-0.1 0.4-0.1 0.7-0.1 0.4 0 0.9 0.1 1.1 0.4s0.3 0.7 0.3 0.8c0 0.3-0.1 0.9 0.4 0.9 0.2 0 0.3-0.1 0.3-0.3v-0.2-0.6"/>
	<path class="st1" d="m108.8 26.2c0 0.3 0 0.6-0.2 0.8-0.1 0.1-0.3 0.2-0.6 0.3s-0.4 0.1-0.5 0.2c0 0-0.1 0.1-0.1 0.2 0 0.2 0.2 0.4 0.5 0.4h0.3c0.4-0.1 1-0.1 1.9-0.1h1.4c0.9 0 1.9 0.1 2.8 0.2 0.1 0 0.6 0.1 0.8-0.3 0.1-0.1 0.1-0.3 0.1-0.5l0.2-1.4c0-0.2 0.1-0.5-0.1-0.6-0.1-0.1-0.1-0.1-0.2-0.1s-0.3 0.1-0.3 0.2c-0.1 0.1-0.1 0.3-0.1 0.4-0.1 0.3-0.1 0.7-0.4 1-0.2 0.3-0.4 0.3-0.8 0.3h-1c-0.6 0-1 0-1.2-0.1-0.1 0-0.2-0.1-0.3-0.3-0.2-0.2-0.2-0.4-0.2-0.7v-2.5h1.3 1.1c0.1 0 0.5 0.1 0.7-0.2 0.1-0.1 0.1-0.2 0.1-0.2s0-0.2-0.1-0.3c-0.2-0.2-0.4-0.2-0.6-0.2h-1.4l-1-0.1v-3.1h2c0.3 0 0.6 0 0.8 0.2 0.1 0.1 0.2 0.2 0.2 0.5 0.1 0.5 0 0.8 0.3 1 0 0 0.1 0.1 0.2 0.1 0.4 0 0.4-0.4 0.4-0.5v-1.5s0-0.3-0.1-0.4c-0.1-0.2-0.4-0.2-0.7-0.2-1 0.1-2 0.1-3 0.1h-1.5-0.6-0.4c-0.3 0-0.4 0.2-0.5 0.4 0 0.2 0.2 0.3 0.3 0.4 0.2 0.1 0.4 0.1 0.5 0.1 0.2 0 0.3 0 0.5 0.1v6.4"/>
	<path class="st1" d="m119.1 20.6c0-0.4 0-0.6 0.2-0.8 0.1-0.1 0.2-0.1 0.3-0.2 0.2-0.1 0.6-0.2 0.8-0.3 0 0 0.1-0.1 0.1-0.2 0-0.2-0.2-0.4-0.4-0.4h-0.3c-0.6 0.1-1.6 0.2-1.6 0.2-0.4 0-0.7 0-1-0.1-0.4-0.1-0.5-0.1-0.7-0.1s-0.5 0.1-0.5 0.3 0.2 0.3 0.3 0.4c0.3 0.1 0.7 0.1 0.9 0.3 0.3 0.2 0.3 0.8 0.3 0.9v5.7c0 0.1 0 0.5-0.2 0.7-0.1 0.2-0.4 0.2-0.4 0.2-0.5 0.1-0.8 0.2-0.8 0.5 0 0.1 0.1 0.4 0.4 0.4 0.1 0 0.6-0.1 0.7-0.1 0.6-0.1 1-0.1 1.3-0.1 0.5 0 0.8 0.1 1 0.1 0.4 0.1 0.5 0.1 0.7 0.1 0.3 0 0.4-0.2 0.4-0.3 0-0.2-0.2-0.3-0.3-0.4-0.3-0.1-0.7-0.1-1-0.4-0.1-0.2-0.1-0.4-0.2-0.6v-5.8"/>
	<path class="st1" d="m128.4 21c0 0.1-0.1 0.4 0.2 0.6 0.1 0.1 0.2 0.1 0.2 0.1 0.1 0 0.2-0.1 0.2-0.1 0.2-0.1 0.2-0.3 0.2-0.6l0.1-1.3v-0.4c0-0.1-0.1-0.2-0.1-0.3-0.2-0.2-0.4-0.2-0.5-0.2h-0.4-0.6-2.3c-1 0-2 0-3-0.1-0.6 0-0.8 0-1 0.2-0.2 0.3-0.1 0.6-0.1 0.9v0.5 0.6c0 0.5 0.2 0.6 0.4 0.6 0.1 0 0.3-0.1 0.4-0.3s0.1-0.4 0.1-0.6c0.1-1.1 0.7-1.2 1.2-1.2 0.4 0 0.7 0 1.1 0.1v6.6c0 0.1 0.1 0.6-0.2 0.8-0.1 0.1-0.3 0.2-0.5 0.3-0.3 0.1-0.5 0.1-0.7 0.3 0 0-0.1 0.1-0.1 0.2s0 0.2 0.1 0.2c0.1 0.1 0.2 0.2 0.4 0.2s0.5-0.1 0.7-0.1 1-0.1 1.2-0.1 1 0.1 1.2 0.1c0.4 0.1 0.4 0.1 0.6 0.1s0.4-0.1 0.5-0.3c0-0.2-0.2-0.3-0.3-0.4-0.3-0.1-0.8-0.1-1-0.4-0.1-0.2-0.1-0.4-0.1-0.6v-6.7c0.4 0 0.8-0.1 1.3-0.1 0.1 0 0.5 0 0.8 0.2 0.2 0.2 0.2 0.3 0.2 0.6v0.6"/>
	<path class="st1" d="m135.7 19.9c0-0.2 0-0.4-0.2-0.6-0.1-0.1-0.2-0.1-0.2-0.1-0.2 0-0.4 0.2-0.5 0.3-0.3 0.3-0.9 0.9-1.3 1.1-0.2 0.1-0.4 0.3-0.6 0.4s-0.2 0.1-0.3 0.2-0.1 0.2-0.1 0.3c0 0.2 0.2 0.3 0.4 0.3s0.4-0.1 0.5-0.2c0 0 0.2-0.1 0.3-0.1s0.1 0 0.2 0.1 0.1 0.5 0.1 0.9v4.1c0 0.1 0 0.4-0.2 0.6s-0.7 0.2-0.9 0.4c-0.1 0.1-0.1 0.2-0.1 0.2 0 0.1 0.1 0.3 0.4 0.3 0.2 0 0.3 0 0.7-0.1s0.7-0.1 0.9-0.1c0.4 0 0.7 0 0.8 0.1 0.4 0.1 0.4 0.1 0.7 0.1s0.4-0.2 0.4-0.3c0-0.2-0.2-0.3-0.3-0.3-0.2-0.1-0.5-0.1-0.7-0.3s-0.2-0.5-0.2-0.7v-6.6"/>
	<path class="st1" d="m140.1 28.2c0.3-0.1 0.9-0.2 1.6-0.5 1.2-0.6 2.2-1.6 2.6-2.9 0.2-0.7 0.3-1.4 0.3-1.7 0-1.1-0.3-2.2-1.2-2.9-0.8-0.7-1.6-0.7-2-0.7-0.2 0-0.6 0-1.1 0.2-1.2 0.4-1.9 1.6-1.9 2.8 0 0.9 0.4 1.8 1.2 2.2 0.5 0.3 0.9 0.3 1.1 0.3 0.7 0 1.2-0.3 1.4-0.5 0.1-0.1 0.1-0.2 0.1-0.3 0-0.3-0.3-0.3-0.3-0.3-0.1 0-0.3 0.1-0.3 0.1h-0.3c-0.2 0-0.4-0.1-0.6-0.1-0.1-0.1-0.2-0.1-0.3-0.3-0.2-0.4-0.3-1-0.3-1.4 0-0.2 0-0.8 0.3-1.3 0.1-0.1 0.4-0.6 1-0.6 1 0 1.4 1.3 1.4 1.4 0.2 0.6 0.2 1.3 0.2 1.5 0 0.5 0 2-1 3.2-0.6 0.7-1.2 1-1.5 1.1-0.2 0.1-0.3 0.1-0.5 0.2l-0.3 0.1c-0.1 0-0.3 0.1-0.3 0.3 0 0.1 0 0.2 0.1 0.3s0.3 0.1 0.5 0.1l0.1-0.3"/>
	<path class="st1" d="m146.6 22.7v0.3c0 0.1 0 0.2 0.1 0.3 0.1 0.2 0.3 0.4 0.8 0.4h0.8c0.8 0 1.6 0.1 2.2 0.8 0.3 0.3 0.4 0.7 0.4 1.1 0 1.1-0.6 1.6-0.9 1.8-0.4 0.2-0.8 0.2-0.9 0.2-0.6 0-0.9-0.3-1.1-0.5-0.1-0.1-0.2-0.2-0.3-0.5s-0.3-0.7-0.6-0.9c-0.2-0.1-0.3-0.1-0.4-0.1-0.6 0-0.6 0.6-0.6 0.7 0 0.5 0.4 0.9 0.5 1 0.5 0.6 1.3 0.7 1.5 0.8 0.2 0 0.5 0.1 1 0.1 1.9 0 2.8-1 3.1-1.7 0.3-0.5 0.3-1 0.3-1.3 0-0.7-0.2-1.2-0.3-1.4-0.4-0.8-1.3-1.6-3.2-1.6-0.4 0-0.8 0-1.3 0.1l0.1-0.8 0.1-1 0.5 0.1 1.4 0.1c0.4 0 1.6 0 1.9-0.2 0.1-0.1 0.1-0.2 0.1-0.2l0.2-0.8s0.1-0.2 0.1-0.3c0 0 0-0.3-0.3-0.3s-0.4 0.3-0.4 0.4c-0.3 0.1-0.8 0.2-1.6 0.2-0.5 0-1 0-1.5-0.1h-0.4-0.3c-0.5 0-0.5 0.4-0.5 0.5l-0.5 2.8"/>
	<path class="st1" d="m156.8 19.9c0-0.2 0-0.4-0.2-0.6-0.1-0.1-0.2-0.1-0.2-0.1-0.2 0-0.4 0.2-0.5 0.3-0.3 0.3-0.9 0.9-1.3 1.1-0.2 0.1-0.4 0.3-0.6 0.4s-0.2 0.1-0.3 0.2-0.1 0.2-0.1 0.3c0 0.2 0.2 0.3 0.4 0.3s0.4-0.1 0.5-0.2c0 0 0.2-0.1 0.3-0.1s0.1 0 0.2 0.1 0.1 0.5 0.1 0.9v4.1c0 0.1 0 0.4-0.2 0.6s-0.7 0.2-0.9 0.4c-0.1 0.1-0.1 0.2-0.1 0.2 0 0.1 0.1 0.3 0.4 0.3 0.2 0 0.3 0 0.7-0.1s0.7-0.1 0.9-0.1c0.4 0 0.7 0 0.8 0.1 0.4 0.1 0.4 0.1 0.7 0.1s0.4-0.2 0.4-0.3c0-0.2-0.2-0.3-0.3-0.3-0.2-0.1-0.5-0.1-0.7-0.3s-0.2-0.5-0.2-0.7v-6.6"/>
	<polyline points="70.4 61.9 76.3 54.4 83.6 54.4 89.7 61.9 70.4 61.9" class="st0"/>
	<rect y="62.8" x="70" height="9.7" class="st0" width="19.8"/>
	<rect y="73.4" x="70" height="10.9" class="st0" width="19.8"/>
	<polyline points="76.1 53.7 83.7 53.7 80.3 44.1 80.3 43.4 79.9 43.4 79.9 44.1 76.1 53.7" class="st0"/>
	<path class="st0" d="m78.7 42.1c0-0.8 0.6-1.4 1.4-1.4s1.4 0.6 1.4 1.4-0.6 1.4-1.4 1.4-1.4-0.7-1.4-1.4"/>
	<polyline points="79.9 40.7 80.3 40.7 80.3 39.7 82.1 38.8 82.9 38.8 82.9 38.5 82.1 38.5 79.9 37.2 79.9 40.7" class="st0"/>
	<rect y="62.8" x="90.3" height="9.7" class="st0" width="28.3"/>
	<rect y="73.4" x="90.3" height="10.9" class="st0" width="28.3"/>
	<polyline points="119.6 61.9 128.5 54.6 137.5 61.9 119.6 61.9" class="st0"/>
	<rect y="62.8" x="119.3" height="9.7" class="st0" width="18.4"/>
	<rect y="73.4" x="119.3" height="10.9" class="st0" width="18.4"/>
	<rect y="73.4" x="138.5" height="10.9" class="st0" width="28.3"/>
	<rect y="62.8" x="138.5" height="9.7" class="st0" width="28.3"/>
	<polyline points="186.6 61.9 180.8 54.4 173.5 54.4 167.3 61.9 186.6 61.9" class="st0"/>
	<rect y="62.8" x="167.3" height="9.7" class="st0" width="19.8"/>
	<rect y="73.4" x="167.3" height="10.9" class="st0" width="19.8"/>
	<rect y="75.6" x="76.2" height="3.4" class="st1" width="3.4"/>
	<rect y="66" x="76.2" height="3.4" class="st1" width="3.4"/>
	<rect y="66" x="80.5" height="3.4" class="st1" width="3.4"/>
	<rect y="75.6" x="80.5" height="3.4" class="st1" width="3.4"/>
	<rect y="75.6" x="95.1" height="3.4" class="st1" width="3.4"/>
	<rect y="66" x="95.2" height="3.4" class="st1" width="3.4"/>
	<rect y="75.6" x="102.2" height="3.4" class="st1" width="3.4"/>
	<rect y="66" x="102.2" height="3.4" class="st1" width="3.4"/>
	<rect y="66" x="109.2" height="3.4" class="st1" width="3.4"/>
	<rect y="75.6" x="109.2" height="3.4" class="st1" width="3.4"/>
	<path class="st1" d="m124.8 78.8v5.6h7.5v-5.6c-0.2-1.9-1.8-3.3-3.7-3.3-2-0.1-3.6 1.4-3.8 3.3"/>
	<rect y="75.6" x="158.4" height="3.4" class="st1" width="3.4"/>
	<rect y="75.6" x="151.4" height="3.4" class="st1" width="3.4"/>
	<rect y="75.6" x="144.4" height="3.4" class="st1" width="3.4"/>
	<rect y="75.6" x="173" height="3.4" class="st1" width="3.4"/>
	<rect y="75.6" x="177.4" height="3.4" class="st1" width="3.4"/>
	<rect y="66" x="177.4" height="3.4" class="st1" width="3.4"/>
	<rect y="66" x="173" height="3.4" class="st1" width="3.4"/>
	<rect y="66" x="158.4" height="3.4" class="st1" width="3.4"/>
	<rect y="66" x="151.4" height="3.4" class="st1" width="3.4"/>
	<rect y="66" x="144.4" height="3.4" class="st1" width="3.4"/>
	<rect y="66" x="130.5" height="3.4" class="st1" width="3.4"/>
	<rect y="66" x="123.1" height="3.4" class="st1" width="3.4"/>
	<path class="st1" d="m126.7 58.9c0-1 0.8-1.9 1.9-1.9 1 0 1.9 0.8 1.9 1.9 0 1-0.8 1.9-1.9 1.9s-1.9-0.8-1.9-1.9"/>
	<line y1="44.5" x2="122" x1="122" y2="55" class="st3"/>
	<polyline points="166.8 61.9 154.4 53.8 128.6 53.8 138.5 61.9 166.8 61.9" class="st0"/>
	<polyline points="90.2 61.9 102.7 53.7 128.5 53.7 118.6 61.9 90.2 61.9" class="st0"/>
	<path class="st1" d="m91.8 111.6c0 0.7 0 1-0.1 1.3-0.2 0.4-0.5 0.7-0.9 0.9-0.9 0.5-2.3 0.5-2.5 0.5-1.5 0-2.7-0.4-3.2-0.7-1.3-0.6-3.3-2.2-4.1-5.6-0.3-1.3-0.3-2.4-0.3-2.8 0-3.5 1.4-5.6 2.3-6.6 2-2.2 4.9-2.3 5.9-2.3 1.3 0 2.3 0.2 2.8 0.5 0.1 0.1 0.5 0.2 0.7 0.6 0.5 0.5 0.6 1.1 0.6 1.8 0.1 1 0.1 1.5 0.5 1.8 0.1 0.1 0.4 0.1 0.4 0.1 0.1 0 0.4 0 0.6-0.2 0.4-0.4 0.4-0.8 0.3-1.3 0-0.4-0.1-0.9-0.1-1.3v-1c0-0.2 0.1-0.5 0.1-0.7 0-0.9-0.6-1.1-1-1.2-2.3-0.7-4.3-0.8-5.2-0.8-4.8 0-7.5 1.8-8.9 3.2-2.9 2.7-3.1 6.1-3.1 7.5 0 3.1 0.9 4.8 1.6 6 1.6 2.5 3.7 3.5 4.7 3.9 2 0.8 4.5 0.9 5.1 0.9 1.8 0 4.2-0.4 5.7-1.2 1.2-0.7 1.4-1.4 1.5-2 0-0.3 0.1-0.6 0.1-0.9v-3c1.1-0.1 1.7-0.1 1.9-0.6 0.1-0.2 0.1-0.3 0.1-0.4 0-0.4-0.5-0.7-0.9-0.7h-0.5c-0.1 0-2.1 0.2-3.4 0.2h-1.1c-0.5 0-1 0-1.5-0.1-0.4-0.1-0.7-0.1-1.1-0.1-0.2 0-1.1 0.1-1.1 0.8 0 0.9 1.3 1 2 1h1.9v2.5"/>
	<path class="st4" d="m112.1 90.8c-0.2 1.2 0.7 2.4 1.9 2.4 1 0 1.6-0.7 1.8-1.1s0.2-0.7 0.2-0.9c0-1.1-0.9-2.1-2-2.1-1 0.1-1.8 0.8-1.9 1.7m-8.3-0.1c-0.3 1.2 0.6 2.5 1.9 2.5 0.4 0 1.3-0.1 1.8-1.2 0.1-0.1 0.2-0.4 0.2-0.8 0-1.1-0.9-2-2-2-0.8 0-1.6 0.6-1.9 1.5zm-1 13.5c0-3.5 1.4-5.5 2.5-6.5 0.5-0.5 1.9-1.6 3.9-1.6 2.6 0 4.8 1.6 6.1 3.8 1 1.8 1.6 4.3 1.6 6.4 0 2-0.5 4-1.9 5.7-1.7 1.9-3.8 2.2-4.7 2.2-2 0-3.4-1-4-1.5-0.4-0.4-1.2-1-1.8-2.1-1.1-1.8-1.7-4.3-1.7-6.4zm-3.9 0.2c-0.2 4.2 1.7 7.1 2.7 8.2 1 1.2 3.6 3.3 7.9 3.3 1.5 0 5.5-0.3 8.4-3.6 2.5-2.7 2.7-5.7 2.7-7.1 0-3-1.2-6.2-3.5-8.2-2.7-2.4-5.9-2.5-7.1-2.5-5.7 0-10.8 3.7-11.1 9.9z"/>
	<path class="st1" d="m138.4 96.6c0.2-0.3 0.4-0.6 0.4-0.9 0-0.1 0-0.3-0.2-0.6-0.1-0.2-0.4-0.4-1-0.4-0.4 0-0.8 0.1-1.2 0.1-0.6 0.1-1.2 0.1-1.9 0.1-1.3 0.1-2.7 0.1-4 0.1-2 0-3.9-0.1-5.9-0.2-1 0-1.5 0.1-1.8 0.4-0.4 0.5-0.4 1.3-0.4 1.4v1c0 0.3-0.1 0.7-0.1 1 0 0.4-0.1 0.8-0.1 1.2s0 0.7 0.3 0.9c0.2 0.1 0.3 0.1 0.4 0.1 0.2 0 0.4-0.1 0.5-0.2s0.2-0.3 0.4-0.7c0.1-0.4 0.1-0.5 0.2-1.2 0.1-0.6 0.1-1.1 0.5-1.5s0.7-0.4 1.3-0.4h8.1l-5.8 8.4-5.6 8c-0.3 0.4-0.7 0.9-0.7 1.4 0 0.1 0 0.4 0.3 0.6 0.4 0.2 0.8 0.2 1.2 0.2 2.3-0.1 4.5-0.3 6.8-0.3 2.2 0 4.4 0.1 6.6 0.3 0.7 0 1.3 0.1 1.7-0.5s0.3-1.3 0.4-2c0.1-0.6 0.3-1.2 0.4-1.9 0-0.3 0.1-0.5 0.1-0.6 0-0.2 0-1.1-0.8-1.1-0.7 0-0.9 0.9-0.9 1-0.3 1.3-0.4 1.9-0.8 2.4-0.6 0.6-1.3 0.6-1.6 0.6h-8.3l5.6-8.1 5.9-8.6"/>
	<path class="st1" d="m157.7 96.6c0.2-0.3 0.4-0.6 0.4-0.9 0-0.1 0-0.3-0.2-0.6-0.1-0.2-0.4-0.4-1-0.4-0.4 0-0.8 0.1-1.2 0.1-0.6 0.1-1.2 0.1-1.9 0.1-1.3 0.1-2.7 0.1-4 0.1-2 0-3.9-0.1-5.9-0.2-1 0-1.5 0.1-1.8 0.4-0.4 0.5-0.4 1.3-0.4 1.4v1c0 0.3-0.1 0.7-0.1 1 0 0.4-0.1 0.8-0.1 1.2s0 0.7 0.3 0.9c0.2 0.1 0.3 0.1 0.4 0.1 0.2 0 0.4-0.1 0.5-0.2s0.2-0.3 0.4-0.7c0.1-0.4 0.1-0.5 0.2-1.2 0.1-0.6 0.1-1.1 0.5-1.5s0.7-0.4 1.3-0.4h8.1l-5.8 8.4-5.6 8c-0.3 0.4-0.6 0.9-0.7 1.4 0 0.1 0 0.4 0.3 0.6 0.4 0.2 0.8 0.2 1.2 0.2 2.3-0.1 4.5-0.3 6.8-0.3 2.2 0 4.4 0.1 6.6 0.3 0.7 0 1.3 0.1 1.7-0.5s0.3-1.3 0.4-2c0.1-0.6 0.3-1.2 0.4-1.9 0-0.3 0.1-0.5 0.1-0.6 0-0.2 0-1.1-0.8-1.1-0.7 0-0.9 0.9-0.9 1-0.3 1.3-0.4 1.9-0.8 2.4-0.6 0.6-1.3 0.6-1.6 0.6h-8.3l5.6-8.1 5.9-8.6"/>
	<path class="st1" d="m163 111.2c0 0.7 0 1.3-0.4 1.8-0.2 0.2-0.7 0.5-1.4 0.6-0.6 0.1-0.9 0.2-1.2 0.5-0.1 0.1-0.2 0.2-0.2 0.5 0 0.5 0.5 0.8 1 0.8 0.3 0 0.6-0.1 0.6-0.1 0.9-0.2 2.1-0.2 4.2-0.3l3 0.1c2.1 0.1 4.1 0.2 6.2 0.4 0.2 0 1.3 0.2 1.7-0.6 0.1-0.3 0.2-0.7 0.2-1l0.4-3c0.1-0.5 0.2-1-0.2-1.4-0.1-0.1-0.3-0.2-0.5-0.2-0.3 0-0.6 0.2-0.7 0.5l-0.3 0.9c-0.2 0.8-0.3 1.6-0.8 2.2s-1 0.6-1.7 0.6h-2.3c-1.4 0-2.2 0-2.7-0.3-0.1-0.1-0.5-0.2-0.8-0.6-0.4-0.5-0.4-1-0.4-1.6v-5.4c0.9 0 1.9-0.1 2.8-0.1 0.8 0 1.6 0.1 2.4 0.1 0.2 0 1.1 0.1 1.5-0.5 0.1-0.2 0.2-0.4 0.2-0.5s0-0.4-0.2-0.6c-0.4-0.4-0.8-0.4-1.4-0.4l-3.1 0.1-2.2-0.1v-6.9h4.3c0.7 0 1.3 0 1.8 0.5 0.2 0.2 0.4 0.4 0.4 1 0.1 1.2 0.1 1.9 0.6 2.2 0.1 0.1 0.2 0.1 0.5 0.1 0.9 0 0.9-0.9 0.9-1.1v-3.4c0-0.1 0-0.6-0.2-0.9-0.3-0.5-0.9-0.5-1.6-0.5-2.2 0.1-4.4 0.3-6.6 0.3-1.1 0-2.2 0-3.3-0.1-0.5 0-0.9-0.1-1.4-0.1-0.3 0-0.5-0.1-0.8-0.1-0.7 0-1 0.5-1 0.8 0 0.5 0.4 0.7 0.6 0.8 0.4 0.2 1 0.2 1.1 0.2 0.4 0 0.7 0.1 1.1 0.1v14.7"/>
	<line y1="58.1" x2="18.7" x1="18.7" y2="85.5" class="st3"/>
	<line y1="50.4" x2="25.2" x1="25.2" y2="85.5" class="st3"/>
	<line y1="42.8" x2="31.5" x1="31.5" y2="85.5" class="st3"/>
	<line y1="38.2" x2="38.2" x1="38.2" y2="85.5" class="st3"/>
	<line y1="33.6" x2="44.4" x1="44.4" y2="85.5" class="st3"/>
	<line y1="58.1" x2="238.2" x1="238.2" y2="85.5" class="st3"/>
	<line y1="50.4" x2="231.8" x1="231.8" y2="85.5" class="st3"/>
	<line y1="42.8" x2="225.3" x1="225.3" y2="85.5" class="st3"/>
	<line y1="38.2" x2="218.9" x1="218.9" y2="85.5" class="st3"/>
	<line y1="33.6" x2="212.4" x1="212.4" y2="85.5" class="st3"/>
	<line y1="29" x2="205.8" x1="205.8" y2="85.5" class="st3"/>
	<line y1="26" x2="199.6" x1="199.6" y2="85.5" class="st3"/>
	<line y1="85.5" x2="246.7" x1="9.4" y2="85.5" class="st3"/>
	<polyline points="180.9 53.7 173.4 53.7 176.8 44.1 176.8 43.4 177.2 43.4 177.2 44.1 180.9 53.7" class="st0"/>
	<path class="st0" d="m175.6 42.1c0-0.8 0.6-1.4 1.4-1.4s1.4 0.6 1.4 1.4-0.6 1.4-1.4 1.4-1.4-0.6-1.4-1.4"/>
	<polyline points="177.2 40.7 176.8 40.7 176.8 39.8 174.9 38.8 174.2 38.8 174.2 38.5 175 38.5 177.2 37.2 177.2 40.7" class="st0"/>
</svg>
