<?xml version="1.0" encoding="UTF-8" standalone="no"?>
<!-- Generator: Adobe Illustrator 19.1.0, SVG Export Plug-In . SVG Version: 6.00 Build 0)  -->
<svg id="Ebene_1" style="enable-background:new 0 0 67 60" xmlns="http://www.w3.org/2000/svg" xml:space="preserve" viewBox="0 0 67 60" version="1.1" y="0px" x="0px" xmlns:xlink="http://www.w3.org/1999/xlink">
<style type="text/css">
	.st0{fill:#5F5F5F;}
	.st1{fill-rule:evenodd;clip-rule:evenodd;fill:#5F5F5F;}
</style>
	<path class="st0" d="m38.9 3.4c0.2 0.1 0.3 0.3 0.2 0.5s-0.3 0.3-0.5 0.2m-4-0.1c1.2-1.1 2-1.9 4.3-0.6l-0.4 0.7c-1.8-1-2.5-0.4-3.4 0.5l-0.5-0.6zm-3.6 1.8c1.8-0.3 2.8-1.1 3.5-1.9l0.5 0.6c-0.9 0.8-1.9 1.8-4 2.1v-0.8zm0 0.8c-0.4-0.1-0.3-0.7 0.1-0.8l0.1 0.4-0.2 0.4zm4.2 2.8c-1.3-1.2-3.4-2.5-4.3-2.8l0.3-0.8c0.9 0.3 3.2 1.7 4.5 3l-0.5 0.6zm0.7 0.6l-0.6-0.6 0.5-0.6 0.7 0.7-0.6 0.5zm0.3 0.5c-0.1-0.1-0.2-0.3-0.3-0.5l0.6-0.5c0.2 0.2 0.4 0.5 0.5 0.7l-0.8 0.3zm0.7-0.3l-0.4 0.2 0.4-0.2zm-0.7 0.3l0.7-0.3-0.7 0.3zm0 0.1v0l0.3-0.2-0.3 0.2zm0.3 3.7c0.5-0.9 0.6-2.2-0.3-3.7l0.7-0.4c1.1 1.8 0.9 3.4 0.3 4.5l-0.7-0.4zm-0.9 0.8c0.3-0.1 0.7-0.4 0.9-0.9l0.7 0.4c-0.3 0.6-0.8 1-1.3 1.2l-0.3-0.7zm-0.8-0.1c0.2 0.2 0.5 0.2 0.8 0.1l0.3 0.7c-0.5 0.2-1.1 0.2-1.6-0.2l0.5-0.6zm-0.6-2.4c-0.1 1.4 0.2 2.2 0.6 2.5l-0.5 0.6c-0.6-0.5-1-1.5-0.9-3.1h0.8zh-0.4 0.4zm-4.6-4.4c2.4 1 4.7 2 4.5 4.4h-0.8c0.1-1.8-2-2.7-4.1-3.6l0.4-0.8zm-4.1-5.7c-1.2 3.3 1.5 4.5 4.1 5.7l-0.3 0.7c-3-1.3-6.1-2.6-4.5-6.6l0.7 0.2zm-0.5 0.2l0.3-0.7c0.3 0.1 0.3 0.3 0.2 0.5m-0.5 0.2l0.1-0.4-0.1 0.4zm-2 1.2c1.2-1.3 2.2-1.9 2.3-1.9l-0.3 0.7s-0.5 0.7-1.5 1.7l-0.5-0.5zm-4.1 4.7c1.4-2 2.9-3.6 4-4.8l0.6 0.5c-1.1 1.1-2.5 2.8-4 4.7l-0.6-0.4zm0.6 24.8c-10.2-7.5-5.5-18-0.5-24.7l0.6 0.5c-4.8 6.5-9.3 16.6 0.4 23.6l-0.5 0.6zm0.4-0.7l-0.2 0.3 0.2-0.3zm0.1 0.8c-0.2 0-0.5 0-0.6-0.1l0.5-0.6v0.2l0.1 0.5zm0.2-0.1c-0.1 0-0.1 0.1-0.2 0.1l-0.1-0.6s-0.1-0.2 0-0.2l0.3 0.7zm0.3-0.3c0 0.1-0.1 0.2-0.2 0.3l-0.4-0.7c0.1 0-0.2 0.3-0.2 0.2l0.8 0.2zm-0.1-0.4c0.1 0.1 0.1 0.3 0.1 0.4l-0.8-0.2c0-0.1 0.1 0.3 0 0.2l0.7-0.4zm-0.6 0.4s-0.1 0 0 0l0.3-0.2-0.3 0.2zm0.4-1c0 0.3 0.1 0.5 0.2 0.6l-0.7 0.4-0.3-0.9 0.8-0.1zm1.1-3.8c-0.9 1.5-1.2 2.8-1 3.8l-0.8 0.1c-0.2-1.1 0.1-2.7 1.1-4.3l0.7 0.4zm5-4.4c-2.5 1.3-4.1 2.9-5 4.4l-0.7-0.4c1-1.6 2.7-3.3 5.3-4.7l0.4 0.7zm8.6-2.7c-3.6 0.6-6.4 1.5-8.6 2.7l-0.4-0.7c2.2-1.2 5.1-2.2 8.8-2.8l0.2 0.8zm-0.1-0.7c0.3 0 0.5 0.2 0.4 0.5l-0.4-0.1v-0.4zm-1.3 2.3c0.3-0.4 0.3-0.4 0.9-2.1l0.8 0.3c-0.6 1.8-0.6 1.9-1.1 2.4l-0.6-0.6zm-0.7 1c0.4-0.5 0.6-0.8 0.8-1l0.6 0.5c-0.2 0.2-0.4 0.4-0.7 0.9l-0.7-0.4zm0.6 0.5l-0.1 0.1-0.2-0.4 0.3 0.3zm-3.8 0.9c1.2-0.4 2.4-0.9 3.2-1.5l0.4 0.7c-0.9 0.6-2.2 1.1-3.4 1.5l-0.2-0.7zm-3.4 1.5c0.9-0.6 2.2-1.1 3.4-1.6l0.3 0.7c-1.2 0.5-2.4 0.9-3.2 1.5l-0.5-0.6zl0.2 0.3-0.2-0.3zl0.5 0.6-0.5-0.6zm0.5 0.7s-0.1 0 0 0l-0.2-0.3 0.2 0.3zm-4.5 4.2c0.5-1.7 1.7-3.5 4-4.9l0.4 0.7c-2.1 1.3-3.2 2.9-3.7 4.4l-0.7-0.2zm-0.2 1c0-0.3 0.1-0.7 0.2-1l0.8 0.2c-0.1 0.3-0.1 0.6-0.2 0.9l-0.8-0.1zm0 1v-1l0.8 0.1v0.8l-0.8 0.1zh0.4-0.4zl0.8-0.1-0.8 0.1zm0.8-0.1h-0.4 0.4zm1.7 4c-0.8-0.5-2.3-1.4-2.5-3.8l0.8-0.1c0.1 2 1.4 2.8 2.1 3.2l-0.4 0.7zm0.1 0c-0.2-0.1 0 0 0 0l0.3-0.7s-0.1-0.1 0.1 0l-0.4 0.7zl0.2-0.4-0.2 0.4zm2.6 0.4c-0.8 0.1-1.7 0-2.6-0.4l0.3-0.7c0.7 0.4 1.5 0.4 2.2 0.3l0.1 0.8zm2-0.5c-0.5 0.2-1.2 0.4-2 0.5l-0.1-0.8c0.7-0.1 1.3-0.3 1.8-0.5l0.3 0.8zl-0.1-0.4 0.1 0.4zm1.9-1.9c-0.2 0.7-0.8 1.4-1.9 1.9l-0.3-0.7c0.9-0.4 1.3-0.9 1.4-1.4l0.8 0.2zm0.1-1c0 0.3 0 0.6-0.1 1l-0.8-0.2c0.1-0.2 0.1-0.5 0.1-0.7l0.8-0.1zm-0.2-0.9c0.1 0.3 0.2 0.5 0.2 0.9l-0.8 0.1c0-0.2-0.1-0.4-0.2-0.6l0.8-0.4zm-0.9-0.9c0.4 0.1 0.7 0.5 0.9 1l-0.7 0.3c-0.1-0.3-0.3-0.5-0.4-0.5l0.2-0.8zm-0.3 0h0.2l-0.1 0.4-0.1-0.4zm-2.3 1.8c0.5-0.8 1.4-1.6 2.4-1.8l0.2 0.8c-0.8 0.2-1.5 0.8-1.9 1.5l-0.7-0.5zm-0.3 0.5c0.1-0.2 0.1-0.3 0.2-0.5l0.7 0.4c0 0.1-0.1 0.2-0.1 0.4l-0.8-0.3zm-0.1 0.5c0-0.2 0-0.3 0.1-0.5l0.8 0.2c0 0.1-0.1 0.2-0.1 0.3h-0.8zh0.8-0.8zm0 0.1v0h0.4-0.4zm0 0.2c0.1 0 0.1-0.1 0.1-0.2h0.8c0 0.3-0.1 0.7-0.5 0.9l-0.4-0.7zm-0.1 0l0.5 0.7c-0.1 0-0.1 0.1-0.2 0.1l-0.3-0.8zm-0.1 0c0.1 0 0.1 0 0 0l0.3 0.7c-0.1 0-0.2 0-0.2 0.1l-0.1-0.8zm0.1 0.8v-0.4 0.4zm-0.1-0.8c0.1 0 0 0 0 0l0.1 0.8-0.1-0.8zm0.1 0.8s-0.1 0 0 0v-0.4 0.4zm-1.5-1.1c0.3 0.2 0.8 0.3 1.5 0.3v0.8c-0.8 0-1.4-0.1-1.8-0.4l0.3-0.7zm-1-1.1c0.3 0.5 0.6 0.9 1 1.1l-0.4 0.7c-0.6-0.4-1-0.8-1.3-1.4l0.7-0.4zm-0.7 0.4l0.3-0.2-0.3 0.2zm0.4-1.7c0 0.5 0.1 1 0.3 1.4l-0.7 0.3c-0.2-0.4-0.4-1.1-0.4-1.6l0.8-0.1zm0.5-1.4c-0.3 0.5-0.4 1-0.4 1.4h-0.8c0-0.6 0.1-1.2 0.5-1.8l0.7 0.4zl-0.3-0.2 0.3 0.2zm1.3-1.6c-0.5 0.5-1 1-1.3 1.6l-0.7-0.4c0.4-0.7 0.9-1.3 1.5-1.8l0.5 0.6zm1.9-1.4c-0.7 0.4-1.3 0.8-1.9 1.3l-0.5-0.6c0.6-0.5 1.2-1 2-1.4l0.4 0.7zm3.6-0.8c-0.9 0-2.4 0.1-3.6 0.8l-0.4-0.7c1.4-0.8 3.1-1 4.1-1l-0.1 0.9zm0.5 0h-0.4v-0.8h0.5l-0.1 0.8zm0.2 0h-0.3l0.1-0.8c0.2 0 0.3 0 0.4 0.1l-0.2 0.7zl0.2-0.8-0.2 0.8zm0.2-0.7l-0.1 0.4 0.1-0.4zm0.2 1.2c-0.1-0.2-0.2-0.4-0.5-0.5l0.2-0.8c0.6 0.2 0.7 0.5 0.9 0.9l-0.6 0.4zm0.7-0.3l-0.3 0.1 0.3-0.1zm-0.6 0.4s-0.1-0.1 0 0l0.7-0.4-0.7 0.4zm0.7-0.4v0.1h-0.4l0.4-0.1zm-0.5 2.7c-0.1-0.8-0.2-1.7-0.3-2.5l0.8-0.1c0.1 0.9 0.2 1.7 0.3 2.4l-0.8 0.2zm0 0.2v-0.2l0.8-0.1v0.2l-0.8 0.1zm0.8-0.1v0h-0.4 0.4zm-1.3 1.9c0.2-0.5 0.5-1 0.5-1.9h0.8c0 1-0.3 1.6-0.5 2.2l-0.8-0.3zm-0.3 1c0.1-0.4 0.2-0.6 0.4-0.9l0.7 0.3c-0.1 0.3-0.2 0.5-0.3 0.9l-0.8-0.3zl0.4 0.1-0.4-0.1zm-0.2 0.8c0-0.3 0-0.5 0.1-0.8l0.8 0.2c-0.1 0.2-0.1 0.4-0.1 0.6h-0.8zm0.2 0.8c-0.1-0.3-0.2-0.6-0.2-0.8h0.8c0 0.2 0.1 0.3 0.1 0.6l-0.7 0.2zl0.4-0.1-0.4 0.1zm0.5 1.2c-0.2-0.4-0.3-0.8-0.5-1.2l0.7-0.3c0.1 0.4 0.3 0.7 0.5 1.1l-0.7 0.4zm0.6 1.6c-0.2-0.5-0.4-1.1-0.6-1.6l0.7-0.3c0.2 0.6 0.5 1.1 0.7 1.7l-0.8 0.2zm0.8-0.3l-0.4 0.1 0.4-0.1zm-0.8 0.3l0.8-0.3-0.8 0.3zm3 1.2c-1.5 0.1-2.5 0.2-3-1.2l0.8-0.2c0.3 0.8 1.1 0.8 2.2 0.7v0.7zm0.1 0l-0.1-0.8 0.1 0.8zl-0.1-0.4 0.1 0.4zm0.9-0.5c-0.2 0.3-0.5 0.5-0.9 0.5l-0.1-0.8c0.2 0 0.3-0.1 0.4-0.2l0.6 0.5zm0.2-0.5c0 0.2-0.1 0.3-0.2 0.5l-0.6-0.5c0-0.1 0.1-0.1 0.1-0.2l0.7 0.2zm0-0.5v0.5l-0.8-0.1v-0.2l0.8-0.2zm-0.3-0.7c0.2 0.1 0.3 0.4 0.4 0.7l-0.9 0.1v-0.2l0.5-0.6zm-0.1 0s0.1 0 0 0l-0.2 0.3 0.2-0.3zm-1.7-2.2c0.1 0.8 0.6 1.6 1.7 2.2l-0.4 0.7c-1.4-0.8-2-1.8-2.1-2.9h0.8zm0.9-3c-0.6 1.1-0.9 2-0.9 2.9l-0.7 0.1c-0.1-1.1 0.3-2.2 1-3.4l0.6 0.4zl-0.4-0.1 0.4 0.1zm0.9-2.4c-0.3 0.8-0.6 1.7-0.9 2.4l-0.7-0.3c0.4-1 0.6-1.7 0.9-2.4l0.7 0.3zm1-2.8c-0.4 1.1-0.7 2-1 2.8l-0.7-0.3c0.4-1 0.7-1.9 1-2.8l0.7 0.3zm-0.7-0.3c0.1-0.2 0.3-0.3 0.5-0.2l-0.1 0.4-0.4-0.2zm0.4 0.5h-0.1l0.2-0.8h0.1l-0.2 0.8zm5.7 2c0.1-0.6-3.8-1.5-5.7-2l0.2-0.8c2.2 0.5 6.6 1.6 6.3 2.9l-0.8-0.1zm0.8 0.2l-0.4-0.1 0.4 0.1zm-1.4 1.1c0.2-0.4 0.5-0.9 0.6-1.4l0.8 0.2c-0.1 0.6-0.4 1.1-0.7 1.5l-0.7-0.3zm-0.5 1.3c0.1-0.4 0.3-0.8 0.5-1.2l0.7 0.4c-0.2 0.4-0.4 0.7-0.5 1l-0.7-0.2zm0.8 0.2l-0.4-0.1 0.4 0.1zm-0.8 0.8c-0.1-0.3-0.1-0.6 0-1.1l0.8 0.2c-0.1 0.3-0.1 0.5 0 0.7l-0.8 0.2zm0.4 1c-0.2-0.4-0.4-0.6-0.5-0.9l0.8-0.2c0.1 0.2 0.2 0.4 0.4 0.7l-0.7 0.4zm0.7-0.5l-0.3 0.2 0.3-0.2zm1.4 2.6c-0.8-0.4-1.6-1.3-2.1-2.2l0.7-0.4c0.5 0.8 1.1 1.5 1.8 1.9l-0.4 0.7zm1.2 0.3c-0.4 0-0.8-0.1-1.1-0.3l0.4-0.7c0.3 0.1 0.5 0.2 0.8 0.2v0.8zm0.7-0.1c-0.3 0.1-0.5 0.1-0.7 0.1v-0.8c0.1 0 0.3 0 0.5-0.1l0.2 0.8zl-0.1-0.4 0.1 0.4zl-0.3-0.7 0.3 0.7zl-0.1-0.4 0.1 0.4zm2-1.5c-0.3 0.5-1.1 1.2-2 1.5l-0.3-0.8c0.7-0.2 1.3-0.7 1.6-1.1l0.7 0.4zl-0.3-0.2 0.3 0.2zm0.2-0.3c0 0.1-0.1 0.2-0.2 0.4l-0.7-0.5c0-0.1 0.1-0.1 0.1-0.2l0.8 0.3zm0-0.5v0.4l-0.8-0.2v-0.1l0.8-0.1zl-0.4 0.1 0.4-0.1zl-0.8 0.2 0.8-0.2zl-0.4 0.1 0.4-0.1zm-0.6-0.7c0.4 0.3 0.6 0.7 0.6 0.8l-0.8 0.2s-0.1-0.2-0.2-0.3l0.4-0.7zm-0.3-0.2c0.1 0 0.2 0.1 0.3 0.1l-0.4 0.7s-0.1 0-0.1-0.1l0.2-0.7zm-0.3-0.1c0.1 0 0.2 0 0.3 0.1l-0.3 0.7h-0.1l0.1-0.8zv0.8-0.8zm-0.1 0.8v-0.4 0.4zm-0.9-0.7c0.3 0 0.6-0.1 1-0.1l-0.1 0.8c-0.3 0-0.6 0-0.8 0.1l-0.1-0.8zm-0.3 0.1h0.3l0.1 0.8c-0.3 0-0.5 0.1-0.7 0l0.3-0.8zm-0.2 0.7l0.1-0.4-0.1 0.4zm-0.7-2.2c-0.2 0.6-0.1 1.2 0.8 1.4l-0.2 0.8c-1.5-0.4-1.7-1.4-1.4-2.4l0.8 0.2zm0.9-1.7c-0.3 0.6-0.7 1.2-0.9 1.7l-0.8-0.2c0.2-0.6 0.6-1.3 0.9-1.9l0.8 0.4zm0.8-1.7c0 0.5-0.4 1.1-0.8 1.7l-0.7-0.4c0.3-0.6 0.6-1.1 0.7-1.4l0.8 0.1zm0-0.1h-0.4 0.4zh-0.8 0.8zh-0.4 0.4zm-5.8-4.3c2.4 1.1 5.9 2.8 5.8 4.3h-0.8c0.1-0.9-3.2-2.5-5.3-3.6l0.3-0.7zm-1.3-0.6c0.4 0.2 0.8 0.4 1.3 0.6l-0.3 0.7c-0.5-0.2-1-0.5-1.3-0.6l0.3-0.7zl-0.4 0.7 0.4-0.7zm-0.3 0.7c-0.2-0.1-0.3-0.4-0.1-0.6l0.3 0.2-0.2 0.4zm3.8-4.8c-0.9 1.2-1.9 2.6-3.3 4.7l-0.7-0.5c1.4-2.1 2.4-3.5 3.3-4.7l0.7 0.5zm0.7-1c-0.3 0.4-0.5 0.7-0.7 1l-0.7-0.5c0.3-0.4 0.5-0.7 0.7-1l0.7 0.5zm5-2.9c-1.9 0.6-4.4 2.1-5 2.9l-0.6-0.5c0.7-0.9 3.4-2.6 5.4-3.2l0.2 0.8zm1-0.2c-0.3 0-0.6 0.1-1 0.2l-0.2-0.8c0.4-0.1 0.8-0.2 1.2-0.2v0.8zm0.7 0.1c-0.2-0.1-0.4-0.1-0.7-0.1l-0.1-0.8c0.4 0 0.7 0 1 0.1l-0.2 0.8zm0.3-0.8l-0.1 0.4 0.1-0.4zm-0.3 0.8l0.3-0.7-0.3 0.7zm0.3-0.8l0.1 0.1-0.3 0.3 0.2-0.4zm0 1.3c-0.1-0.2-0.2-0.4-0.5-0.7l0.5-0.6c0.4 0.3 0.6 0.6 0.7 1l-0.7 0.3zm0.1 1.1c0.1-0.5 0.1-0.8 0-1.1l0.8-0.2c0.1 0.4 0.1 0.8 0 1.4l-0.8-0.1zm0 0.2v-0.2h0.4l-0.4 0.2zm0.6 0.9c-0.2-0.2-0.5-0.5-0.6-1l0.8-0.2c0.1 0.3 0.2 0.5 0.4 0.6l-0.6 0.6zm0.7 0.4c-0.3 0-0.5-0.1-0.8-0.3l0.5-0.6c0.1 0.1 0.2 0.1 0.3 0.1v0.8zm0.9-0.3c-0.3 0.2-0.5 0.3-0.8 0.2l0.1-0.8c0.1 0 0.2 0 0.3-0.1l0.4 0.7zm0.7-0.8c-0.2 0.4-0.4 0.7-0.7 0.9l-0.5-0.7c0.2-0.1 0.3-0.3 0.4-0.5l0.8 0.3zm0-0.2v0.1l-0.4-0.1h0.4zm-0.3-2.2c0.3 0.7 0.4 1.4 0.3 2.2l-0.8-0.1c0.1-0.7-0.1-1.3-0.3-1.8l0.8-0.3zm-1.1-1.7c0.4 0.5 0.8 1.1 1 1.7l-0.7 0.3c-0.2-0.6-0.6-1.1-0.9-1.6l0.6-0.4zl-0.3 0.3 0.3-0.3zm-1.5-0.9c0.6 0.1 1.1 0.5 1.5 1l-0.6 0.5c-0.3-0.3-0.6-0.6-1-0.7l0.1-0.8zm-0.4-0.1h0.4l-0.1 0.8h-0.3v-0.8zm0 0.8v-0.4 0.4zm-0.4-0.7h0.4v0.8h-0.3l-0.1-0.8zl0.1 0.8-0.1-0.8zl0.1 0.4-0.1-0.4zm-2.4 0.3c0.8-0.1 1.6-0.1 2.4-0.3l0.1 0.8c-0.8 0.1-1.6 0.2-2.5 0.3v-0.8zm-1.9 0.2c0.6-0.1 1.3-0.2 1.9-0.2l0.1 0.8c-0.6 0.1-1.2 0.1-1.9 0.2l-0.1-0.8zm-0.4 0h0.4l0.1 0.8c-0.4 0.1-0.6 0-0.8-0.1l0.3-0.7zm0.1 0s-0.2-0.1-0.1 0l-0.3 0.7c-0.4-0.2-0.5-0.6-0.3-1l0.7 0.3zm0.6-0.7c-0.3 0.3-0.5 0.6-0.5 0.8l-0.8-0.4c0.1-0.3 0.4-0.6 0.7-1l0.6 0.6zm3.3-3.1c-0.2 0.1-2.3 1.8-3.3 3l-0.6-0.5c1.1-1.3 3.3-3 3.5-3.2l0.4 0.7zm0.1 0l-0.2-0.3 0.2 0.3zm1.2-0.1c-0.3-0.2-0.7-0.3-1.3 0.1l-0.5-0.6c1-0.7 1.5-0.4 2.1-0.2l-0.3 0.7zm1.9 0.1c-0.9 0.4-1.4 0.2-1.9-0.1l0.3-0.7c0.3 0.2 0.7 0.3 1.2 0.1l0.4 0.7zm-0.3-0.7l0.2 0.4-0.2-0.4zm1.2 0c-0.2 0.2-0.4 0.5-0.9 0.7l-0.3-0.7c0.3-0.1 0.5-0.3 0.5-0.4l0.7 0.4zm0.1-0.5c0 0.2-0.1 0.3-0.2 0.5l-0.7-0.4v-0.1h0.9zm-0.1-0.4c0.1 0.2 0.1 0.3 0.1 0.5h-0.8v-0.1l0.7-0.4zm-0.7-0.8c0.3 0.2 0.6 0.5 0.7 0.7l-0.7 0.3c-0.1-0.1-0.2-0.3-0.4-0.4l0.4-0.6zl-0.2 0.3 0.2-0.3zm-1-0.5c0.3 0.1 0.7 0.3 1 0.5l-0.4 0.7c-0.3-0.2-0.6-0.3-0.9-0.5l0.3-0.7zm-0.2-0.1c0.1 0 0.1 0.1 0.2 0.1l-0.3 0.7c-0.1 0-0.1 0-0.2-0.1l0.3-0.7zm-0.2 0c0.1 0 0.1 0 0.2 0.1l-0.3 0.7h-0.1l0.2-0.8zl-0.2 0.8 0.2-0.8zl-0.1 0.4 0.1-0.4zm-4.1 1.3c1.2-0.9 2.3-1.8 4.1-1.3l-0.2 0.8c-1.4-0.3-2.4 0.4-3.4 1.2l-0.5-0.7zm-0.2 0.2c0.1-0.1 0.2-0.1 0.2-0.2l0.5 0.6-0.2 0.2-0.5-0.6zl0.2 0.3-0.2-0.3zm-0.7 0.5c0.2-0.2 0.4-0.3 0.6-0.5l0.5 0.6c-0.2 0.1-0.4 0.3-0.6 0.5l-0.5-0.6zm-3.6 3.2c0.7-0.9 2.5-2.3 3.7-3.2l0.5 0.6c-1.1 0.9-2.8 2.2-3.5 3l-0.7-0.4zm0.6 0.5s-0.1 0.1 0 0l-0.3-0.2 0.3 0.2zm-0.7-0.5s0-0.1 0.1-0.1l0.4 0.7c-0.1 0 0.1-0.1 0.1-0.1l-0.6-0.5zm0.7 0.5c-0.1 0.2-0.4 0.2-0.6 0.1l0.2-0.3 0.4 0.2zm-0.8-1.2c0.2 0.2 0.4 0.5 0.7 0.7l-0.5 0.6c-0.3-0.2-0.5-0.5-0.8-0.7l0.6-0.6zm-1.3-1.2c0.6 0.3 0.9 0.7 1.3 1.1l-0.6 0.5c-0.3-0.4-0.7-0.7-1.2-1l0.5-0.6zm-0.4 0.7l0.2-0.3-0.2 0.3zm-0.3-1.2c0.1 0.2 0.4 0.3 0.7 0.6l-0.4 0.7c-0.4-0.3-0.8-0.5-1-0.8l0.7-0.5zm0.1-0.3c-0.1 0.1-0.1 0.2-0.1 0.3l-0.7 0.4c-0.3-0.4-0.2-0.8 0.2-1.2l0.6 0.5zm-0.6-0.5s0.1-0.1 0 0l0.3 0.2-0.3-0.2zm1.8-0.7c-0.5 0.5-1 1.1-1.3 1.3l-0.5-0.6 1.2-1.2 0.6 0.5zl-0.3-0.3 0.3 0.3zm1.2-1.2l-1.2 1.2-0.6-0.5c0.5-0.5 1-1.1 1.3-1.3l0.5 0.6zm0.1-0.1s-0.1 0.1 0 0l-0.3-0.3 0.3 0.3zm-0.1 0.1s0.1-0.1 0 0l-0.5-0.6h0.1l0.4 0.6zm0.1-0.5c0.1 0.2 0 0.4-0.1 0.5l-0.2-0.3 0.3-0.2zm-2.6-0.2c0.8-0.3 2.2-0.6 2.6 0.2l-0.7 0.4c-0.2-0.3-1.1 0-1.7 0.2l-0.2-0.8zm-0.4 0.1c0.1 0 0.2-0.1 0.4-0.1l0.3 0.8c-0.1 0-0.2 0.1-0.3 0.1l-0.4-0.8zm-0.2 0.1s0.1-0.1 0.2-0.1l0.3 0.7-0.1 0.1-0.4-0.7zl0.4 0.7-0.4-0.7zm0.4 0.7h-0.4l0.2-0.3 0.2 0.3zm-0.2-0.8c0.1 0 0.1 0.1 0.2 0.1l-0.5 0.7-0.1-0.1 0.4-0.7zm-0.4 0.7l0.2-0.3-0.2 0.3zm0.3-0.8s0.1 0 0.1 0.1l-0.4 0.7s-0.1 0-0.1-0.1l0.4-0.7zm-0.4 0.7c-0.1-0.1-0.2-0.3-0.2-0.5l0.4 0.1-0.2 0.4zm2.1-1.6c-0.6 0.4-1.4 1-1.5 1.4l-0.8-0.2c0.2-0.7 1.1-1.3 1.8-1.8l0.5 0.6zm0.7-0.6c-0.2 0.2-0.4 0.4-0.7 0.6l-0.5-0.6c0.3-0.2 0.5-0.4 0.6-0.5l0.6 0.5zm0-0.7c0.2 0.2 0.2 0.5 0 0.7l-0.6-0.5c0.1-0.1 0.2 0.5 0.1 0.4l0.5-0.6zl-0.5 0.6 0.5-0.6zm-0.5 0.6l0.2-0.3-0.2 0.3zm-2-1.2c0.9-0.2 1.7-0.1 2.5 0.5l-0.5 0.6c-0.5-0.4-1.1-0.5-1.7-0.3l-0.3-0.8zm-2.1 1.3c0.5-0.6 1.3-1.1 2.1-1.3l0.2 0.8c-0.7 0.2-1.3 0.6-1.7 1l-0.6-0.5zm-0.1 0.1c0.1 0 0.1-0.1 0 0l0.6 0.5-0.6-0.5zm0.6 0.5c-0.1 0.2-0.4 0.2-0.6 0-0.2-0.1-0.2-0.4 0-0.6l0.6 0.6z"/>
	<path class="st1" d="m46.1 0c0.4 0 0.8 0.8 1 2.3-1.2 1.3-2.9 1.6-4.2 2 1.4-1.2 2.8-2.1 2.8-4 0.1-0.2 0.2-0.3 0.4-0.3"/>
	<polyline points="62.4 53.4 62.4 44.7 67 44.7 67 45.4 64.2 45.4 64.2 48.6 67 48.6 67 49.3 64.2 49.3 64.2 53.4" class="st1"/>
	<polyline points="50.8 53.4 50.8 44.7 55.4 44.7 55.4 45.4 52.6 45.4 52.6 48.6 55.4 48.6 55.4 49.3 52.6 49.3 52.6 53.4" class="st1"/>
	<polyline points="40.4 53.4 40.4 44.7 42.2 44.7 42.2 53.4" class="st1"/>
	<polyline points="27.4 53.4 27.4 44.7 31.9 44.7 31.9 45.4 29.2 45.4 29.2 48.6 31.9 48.6 31.9 49.4 29.2 49.4 29.2 52.7 31.9 52.7 31.9 53.4" class="st1"/>
	<path class="st1" d="m15.3 48.6h2v-3.2h-2m-1.8 8v-8.7h3.7c1.2 0 2 0.4 2 0.8v3.1c0 0.5-0.8 0.7-1.9 0.7 0.2 0.2 2.8 4 2.8 4h-1.9l-2.6-3.9h-0.2v3.9h-1.9z"/>
	<path class="st1" d="m1.8 45.4h2v1h1.8v-0.8c0-0.2-0.1-0.4-0.3-0.6s-0.6-0.3-1.2-0.4h-2.4c-0.7 0.1-1.7 0.4-1.7 0.9v7c0 0.6 1.1 0.8 1.8 0.8h2.3c1 0 1.6-0.4 1.6-0.8v-4h-2.6v0.7h0.8v3.3h-2c-0.1 0.2-0.1-6.9-0.1-7.1"/>
	<path class="st0" d="m19.8 56.7c0-0.4-0.3-0.6-0.6-0.6s-0.6 0.3-0.6 0.6c0 0.2 0.1 0.3 0.2 0.4s0.2 0.1 0.5 0.2c0.5 0.1 0.6 0.2 0.8 0.4s0.3 0.5 0.3 0.9c0 0.8-0.6 1.4-1.3 1.4-0.4 0-0.8-0.2-1.1-0.5-0.2-0.3-0.3-0.5-0.3-0.8h0.6c0 0.2 0.1 0.3 0.1 0.5 0.1 0.2 0.4 0.3 0.6 0.3 0.4 0 0.7-0.3 0.7-0.7 0-0.3-0.1-0.4-0.3-0.6 0 0-0.2-0.1-0.5-0.2-0.5-0.2-0.6-0.2-0.7-0.4-0.2-0.2-0.3-0.5-0.3-0.8 0-0.7 0.5-1.3 1.2-1.3 0.4 0 0.8 0.2 1 0.5 0.1 0.2 0.2 0.4 0.2 0.7h-0.5z"/>
	<path class="st0" d="m21.4 59.9v-4.3h0.6v4.3h-0.6z"/>
	<path class="st0" d="m25.9 59.9l-2.1-3.3v3.3h-0.6v-4.3h0.7l2.1 3.3v-3.3h0.6v4.3h-0.7z"/>
	<path class="st0" d="m31.5 58.8c-0.4 0.7-1.1 1.1-2 1.1-1.2 0-2.2-1-2.2-2.2s1-2.2 2.2-2.2c0.8 0 1.5 0.4 2 1.2h-0.8c-0.3-0.4-0.7-0.6-1.2-0.6-0.9 0-1.6 0.7-1.6 1.6s0.7 1.7 1.6 1.7c0.5 0 0.9-0.2 1.2-0.6h0.8z"/>
	<path class="st0" d="m32.1 59.9v-4.3h2.3v0.6h-1.7v1.3h1.7v0.5h-1.7v1.3h1.7v0.6h-2.3z"/>
	<path class="st0" d="m38.5 59.9h-0.6v-3.8h-0.6v-0.6h1.2v4.4z"/>
	<path class="st0" d="m42.2 58.6c0 0.8-0.6 1.4-1.4 1.4s-1.4-0.6-1.4-1.3c0-0.5 0.2-0.8 0.6-1.1-0.3-0.3-0.4-0.5-0.4-0.8 0-0.6 0.5-1.2 1.2-1.2 0.6 0 1.2 0.5 1.2 1.2 0 0.3-0.1 0.6-0.4 0.8 0.4 0.2 0.6 0.6 0.6 1zm-2.1 0.1c0 0.4 0.3 0.8 0.8 0.8 0.4 0 0.8-0.4 0.8-0.8s-0.3-0.8-0.8-0.8-0.8 0.3-0.8 0.8zm0.2-2c0 0.3 0.2 0.6 0.6 0.6 0.3 0 0.6-0.3 0.6-0.6s-0.2-0.6-0.6-0.6-0.6 0.2-0.6 0.6z"/>
	<path class="st0" d="m45.7 58.5c0 0.5-0.1 0.7-0.4 1s-0.6 0.5-1 0.5-0.8-0.2-1.1-0.6c-0.2-0.3-0.3-0.5-0.3-1v-1.4c0-0.4 0.1-0.7 0.4-1s0.6-0.5 1-0.5 0.8 0.2 1.1 0.5c0.2 0.3 0.3 0.5 0.3 0.9v1.6zm-2.2 0c0 0.3 0.1 0.5 0.2 0.7s0.4 0.3 0.6 0.3 0.4-0.1 0.6-0.3c0.1-0.2 0.2-0.3 0.2-0.6v-1.6c0-0.3-0.1-0.4-0.2-0.6s-0.4-0.3-0.6-0.3c-0.3 0-0.5 0.1-0.6 0.3s-0.2 0.3-0.2 0.6v1.5z"/>
	<path class="st0" d="m46.4 59.9v-0.5l1.7-1.7c0.3-0.3 0.4-0.5 0.4-0.8 0-0.5-0.3-0.8-0.7-0.8-0.3 0-0.5 0.2-0.7 0.4-0.1 0.2-0.1 0.2-0.1 0.6h-0.6c0-0.4 0-0.5 0.1-0.8 0.2-0.5 0.7-0.8 1.2-0.8 0.8 0 1.4 0.6 1.4 1.4 0 0.4-0.2 0.8-0.6 1.2l-1.2 1.2h1.8v0.6h-2.7z"/>
</svg>
