<?xml version="1.0" encoding="UTF-8" standalone="no"?>
<!-- Generator: Adobe Illustrator 16.0.0, SVG Export Plug-In . SVG Version: 6.00 Build 0)  -->
<!DOCTYPE svg  PUBLIC '-//W3C//DTD SVG 1.1//EN'  'http://www.w3.org/Graphics/SVG/1.1/DTD/svg11.dtd'>
<svg id="Ebene_1" xmlns="http://www.w3.org/2000/svg" xml:space="preserve" height="60px" viewBox="0 0 133.091 60" width="133.09px" version="1.1" y="0px" x="0px" xmlns:xlink="http://www.w3.org/1999/xlink" enable-background="new 0 0 133.091 60">
<g fill="#60605F">
	<path clip-rule="evenodd" d="m19.759 59.859l-3.015-9.861h-1.86l-3.015 9.861h1.521l0.578-2.127h3.691l0.578 2.127h1.522zm-2.41-3.296h-3.071l0.972-3.579c0.254-0.944 0.578-2.367 0.578-2.367s0.31 1.423 0.563 2.367l0.958 3.579z" fill-rule="evenodd"/>
	<path d="m30.184 59.479v-1.226s-1.169 0.563-2.184 0.563c-1.084 0-2.184-0.521-2.184-3.748 0-3.522 1.296-4.058 2.367-4.058 1.014 0 2 0.521 2 0.521v-1.198s-0.761-0.479-2-0.479c-1.395 0-3.776 0.549-3.776 5.212 0.001 4.539 2.128 4.934 3.593 4.934 1.296 0 2.184-0.521 2.184-0.521z"/>
	<polygon points="41.171 49.998 34.268 49.998 34.268 51.265 37.015 51.265 37.015 59.859 38.424 59.859 38.424 51.265 41.031 51.265 41.171 49.998"/>
	<polygon points="47.118 59.859 47.118 49.998 45.681 49.998 45.681 59.859 47.118 59.859"/>
	<path d="m59.585 49.998h-1.634l-1.606 6.621c-0.24 1-0.563 2.649-0.563 2.649s-0.324-1.649-0.564-2.649l-1.606-6.621h-1.634l2.86 9.861h1.888l2.859-9.861z"/>
	<polygon points="70.01 59.859 70.01 58.605 65.783 58.605 65.783 55.112 69.587 55.112 69.587 53.942 65.783 53.942 65.783 51.25 70.01 51.25 70.01 49.998 64.374 49.998 64.374 59.859 70.01 59.859"/>
	<path d="m86.282 49.998h-1.648l-1.015 6.663c-0.127 0.846-0.366 2.607-0.366 2.607s-0.254-1.761-0.451-2.607l-1.55-6.663h-2.057l-1.55 6.663c-0.197 0.846-0.479 2.607-0.479 2.607s-0.197-1.79-0.324-2.607l-1.028-6.663h-1.648l2.042 9.861h1.945l1.479-6.283c0.24-0.986 0.592-3.001 0.592-3.001s0.366 2.015 0.592 3.001l1.479 6.283h1.944l2.043-9.861z"/>
	<polygon points="96.99 59.859 96.99 58.605 92.764 58.605 92.764 55.112 96.568 55.112 96.568 53.942 92.764 53.942 92.764 51.25 96.99 51.25 96.99 49.998 91.355 49.998 91.355 59.859 96.99 59.859"/>
	<path clip-rule="evenodd" d="m109.25 59.859l-3.015-9.861h-1.86l-3.016 9.861h1.522l0.578-2.127h3.691l0.578 2.127h1.52zm-2.41-3.296h-3.071l0.972-3.579c0.253-0.944 0.578-2.367 0.578-2.367s0.31 1.423 0.563 2.367l0.96 3.579z" fill-rule="evenodd"/>
	<path clip-rule="evenodd" d="m121.22 59.859l-0.817-2.254c-0.268-0.747-0.62-1.859-1.324-2.226 1.113-0.422 2-1.042 2-2.776 0-1.944-1.268-2.606-3.565-2.606h-2.917v9.861h1.409v-4.001c0.634-0.014 1.269-0.07 1.832-0.141 0.536 0.381 0.874 1.211 1.198 2.325l0.521 1.817h1.66v0.001zm-1.55-7.114c0 0.986-0.493 1.494-1.226 1.733-0.69 0.226-1.845 0.281-2.438 0.281v-3.578h1.409c1.29 0 2.26 0.098 2.26 1.564z" fill-rule="evenodd"/>
	<polygon points="18.336 43.465 18.336 27.685 13.243 27.685 13.243 33.884 5.093 33.884 5.093 27.685 0 27.685 0 43.465 5.093 43.465 5.093 36.544 13.243 36.544 13.243 43.465 18.336 43.465"/>
	<path clip-rule="evenodd" d="m48.895 43.465l-6.825-15.78h-7.063l-6.825 15.78h5.365l1.053-2.953h7.877l1.053 2.953h5.365zm-7.402-5.614h-5.909l1.562-4.26c0.543-1.511 1.393-4.171 1.393-4.171s0.849 2.66 1.392 4.171l1.562 4.26z" fill-rule="evenodd"/>
	<path d="m77.414 43.465l-8.149-8.476 7.81-7.304h-6.282l-6.791 7.438 7.208 8.34 6.204 0.002zm-13.582 0v-15.78h-5.093v15.78h5.093z"/>
	<path clip-rule="evenodd" d="m104.57 43.465l-1.663-3.54c-0.544-1.15-1.257-2.66-3.09-3.426 2.58-0.609 4.414-1.759 4.414-4.26 0-4.261-5.534-4.554-10.458-4.554h-6.858v15.78h5.093v-6.155l3.464-0.135c1.121 0.676 1.731 1.758 2.444 3.652l0.985 2.638h5.67zm-5.429-11.024c0 2.66-3.837 2.412-7.131 2.547v-4.734h1.529c3.734 0.001 5.602 0.181 5.602 2.187z" fill-rule="evenodd"/>
	<path clip-rule="evenodd" d="m133.09 35.575c0-6.898-5.161-8.116-9.507-8.116-4.279 0-9.508 1.082-9.508 8.116 0 6.987 4.855 8.115 9.508 8.115 4.35 0 9.51-0.834 9.51-8.115zm-5.09 0c0 3.832-1.46 5.635-4.414 5.635-3.023 0-4.415-1.939-4.415-5.635 0-3.675 1.257-5.636 4.415-5.636s4.4 2.074 4.4 5.636z" fill-rule="evenodd"/>
	<path d="m74.433 16.033c-1.7 1.7-4.048 2.751-6.642 2.751-2.593 0-4.941-1.051-6.641-2.751l6.641-6.641 6.642 6.641z"/>
	<path d="m61.15 2.751c1.7-1.7 4.048-2.751 6.641-2.751 2.594 0 4.942 1.051 6.642 2.751l-6.642 6.641-6.641-6.641z"/>
	<path d="m72.837 9.392c0-2.286 0.816-4.38 2.173-6.009 1.356 1.628 2.173 3.723 2.173 6.009 0 2.285-0.816 4.38-2.173 6.009-1.357-1.629-2.173-3.724-2.173-6.009z"/>
	<path d="m60.572 3.383c1.357 1.628 2.173 3.723 2.173 6.009 0 2.285-0.816 4.38-2.173 6.009-1.356-1.628-2.173-3.724-2.173-6.009 0-2.286 0.817-4.38 2.173-6.009z"/>
</g>
</svg>
