<?xml version="1.0" encoding="UTF-8" standalone="no"?>
<!-- Generator: Adobe Illustrator 16.0.0, SVG Export Plug-In . SVG Version: 6.00 Build 0)  -->
<!DOCTYPE svg  PUBLIC '-//W3C//DTD SVG 1.1//EN'  'http://www.w3.org/Graphics/SVG/1.1/DTD/svg11.dtd'>
<svg id="Ebene_1" xmlns="http://www.w3.org/2000/svg" xml:space="preserve" height="53.442px" viewBox="0 0 110.727 53.442" width="110.73px" version="1.1" y="0px" x="0px" xmlns:xlink="http://www.w3.org/1999/xlink" enable-background="new 0 0 110.727 53.442">
<g fill="#5F5F5F">
	<path d="m81.837 0.804c-0.525-0.205-1.286-0.412-1.827-0.059-0.103 0.059-0.096 0.205-0.05 0.322 0.665 0.439 1.764 0.117 2.181 0.988 0.125 0.36 0.082 0.77-0.183 1.063-0.718 0.645-1.848 0.293-2.63 0.322-0.051-0.264-0.183-0.469-0.125-0.762 0.631 0.292 1.816 0.557 2.183 0-0.058-1.306-1.772-0.264-2.183-1.377-0.161-0.586 0.234-1.025 0.704-1.172 0.644-0.293 1.405 0 2.109 0l-0.179 0.675z"/>
	<path d="m56.198 0.222c-0.153 0.916-0.235 2.344 0.052 3.336h-1.029c0.297-0.778 0.15-1.846 0.092-2.695l-1.031 2.695h-0.756c-0.322-0.967-0.703-1.904-1.08-2.813-0.043 0.883-0.209 1.992 0.142 2.813-0.322 0-0.674-0.056-0.938 0.059 0.176-0.938 0.176-2.286 0-3.311l1.377-0.084c0.293 0.898 0.645 1.754 0.85 2.633 0.381-0.799 0.703-1.787 1.025-2.633h1.296z"/>
	<path d="m69.326 0.222c0.049 0.236 0.049 0.495 0.193 0.703-0.895-0.276-1.601-0.257-2.429-0.257l-0.079 0.898 1.823 0.041c-0.074 0.223-0.045 0.457-0.06 0.428-0.396 0-1.274 0.029-1.685 0.062l-0.079 0.896c0.869 0.097 1.823 0.097 2.58-0.255l-0.265 0.703-3.173 0.041c0.176-1.008 0.176-2.362 0-3.301l3.174 0.041z"/>
	<path d="m29.59 0.306c-0.674 1.143 0.645 2.988-1.143 3.369l-1.317-0.058c-0.089-0.234-0.047-0.557-0.047-0.815 0.368 0.258 0.918 0.551 1.364 0.232 0.439-0.677 0.234-1.731 0.205-2.552l-0.088-0.176h1.026z"/>
	<path d="m41.193 0.365c0.35 1.113 0.897 2.139 1.383 3.193l-0.935 0.059c0-0.264 0.023-0.604-0.255-0.674-0.663 0.07-1.601-0.146-1.806 0.091l-0.07 0.583h-0.985l1.473-3.252h1.195zm-0.617 0.498l-0.618 1.494h1.194c-0.136-0.469-0.449-0.963-0.576-1.494z"/>
	<path d="m95.215 8.128l0.103 0.352 0.132 8.438-5.361 0.143-0.128-6.073c-0.088-0.427-0.444-0.837-0.896-0.941-0.469-0.072-0.939 0.309-1.026 0.748-0.103 2.725-0.792 6.182 2.285 7.5 2.021 1.523 5.267 3.076 5.306 6.006-0.091 3.076 0.895 7.002-2.054 8.746-3.574 1.01-7.687 0.512-11.309-0.044 0.059-3.135-0.073-6.387-0.125-9.697h5.442l0.132 6.738c0.03 0.527 0.371 1.055 0.864 1.201 0.529 0.117 0.956-0.117 1.188-0.564 0.106-2.793 1.23-6.8-1.949-8.372-2.182-1.711-5.859-3.309-5.625-6.68 0.113-2.695-0.542-6.152 2.271-7.457 3.47-0.864 7.176-0.49 10.75-0.044z"/>
	<path d="m110.73 10.497c-1.229 0.21-2.673-0.522-3.457 0.62v14.383l0.177 7.619-0.119 0.185h-5.684l0.234-18.802-0.176-3.883-0.175-0.122-3.267 0.298c-0.074-0.938-0.074-1.992 0-2.93 3.892-0.14 8.58 0.029 12.465-0.14v2.772h0.01z"/>
	<path d="m58.033 25.619c0.15 0.841 0.121 1.8 0.488 2.502 1.174-6.607 1.977-13.383 2.68-20.183h3.574l-3.135 19.248-0.703 6.118c-2.416 0.108-4.778 0.079-7.178 0.049-0.882-8.643-2.249-17.167-3.867-25.415h6.051l2.09 17.681z"/>
	<path d="m78.75 10.753l-4.365 0.041-0.499 0.586c0 2.49-0.293 5.068 0 7.557l0.176 0.119h3.516v2.949l-3.296 0.043-0.454 0.583c-0.072 2.464-0.176 5.098 0.323 7.412 1.117 1.381 2.995 0.293 4.599 0.44 0.088 0.92 0.161 2.021-0.043 2.87h-10.445v-15.996c-0.106-3.135-0.293-6.328-0.314-9.419h10.759l0.043 2.815z"/>
	<path d="m5.889 8.128c0 3.604-0.264 7.78-0.059 11.104 0.439 0.215 1.071 0.146 1.559 0.059 0.375-3.691 0.082-7.368 0-11.119l5.941-0.043c0 3.794-0.264 7.617-0.264 11.484 0.059 4.629-0.092 9.346 0.145 13.879h-5.822c0-3.567 0.216-7.375 0.052-10.95-0.439-0.324-1.113-0.117-1.691-0.176l-0.184 0.264v10.862l-5.566 0.066v-2.695l0.264-13.359c-0.059-3.236-0.163-6.284-0.264-9.376h5.889z"/>
	<path d="m43.652 8.041c1.113 0.154 2.256 0.791 2.813 1.816 1.02 2.578 0.995 6.211 0.234 8.886-0.348 0.87-1.201 1.573-1.934 2.071 2.109 0.936 2.402 3.369 2.432 5.432 0.262 2.185-0.322 5.056 0.615 7.107l-5.303 0.088c-0.352-0.18-0.586-0.629-0.677-1.025-0.348-2.91-0.114-6.064-0.446-8.983-0.078-0.489-0.491-1.007-0.986-1.192-0.209-0.107-0.469-0.021-0.703-0.049l-0.187 0.301c-0.106 3.734 0.187 7.291 0.254 10.949l-5.809 0.051v-17.952l-0.073-7.559 9.77 0.059zm-3.75 2.262c-0.604 2.718-0.158 5.86-0.392 8.753-0.165 0.585 0.511 0.498 0.89 0.498 0.41-0.205 0.752-0.555 0.85-0.996 0.35-2.415 0.498-5.156-0.057-7.5-0.207-0.54-0.744-0.775-1.291-0.755z"/>
	<path d="m27.949 16.163l2.44 13.58 0.812 3.75h-6.064l-0.866-6.702-0.306-0.234h-3.252l-0.264 0.322-0.557 6.614-3.571 0.066 0.232-2.08 2.02-12.422 1.243-10.928 0.134-0.088h6.921l1.078 8.122zm-5.765-3.536c-0.357 3.77-1.002 7.524-1.119 11.351 0.908 0.029 2.053 0.029 2.695-0.098-0.322-3.772-0.791-7.694-1.576-11.253z"/>
	<path d="m55.313 36.927v0.078c0.234 0.098 0.557 0.027 0.847 0.045-0.349 0.14-1.111 0.193-0.706 0.814 1.265 0.121 1.617 1.723 2.58 2.196 0.297 1.613 2.113 0.744 2.993 1.554 1.929-0.146 3.955-0.674 5.932-0.762 0.22 0.184 0.132 0.557 0.053 0.762-1.825 0.362-3.78 0.34-5.676 0.498-0.339 0.967-1.305-0.088-1.64 0.703-0.428-0.177-1.336 0.41-1.248-0.498 0.029-0.109-0.059-0.264 0.074-0.32-0.257-0.297-0.514 0.057-0.807 0-0.059 0.658 0.879 1.152 1.113 1.873 0.293 1.642 2.224 2.666 2.871 4.131 0.358 0.41 0.79 0.645 1.113 1.055-0.56 0.732 0.469 1.26 0.397 2.02 0.702 0.382 0.655 1.235 1.243 1.789-0.38 0.088-0.753 0.13-1.113 0.176-0.086-0.322-0.342-0.615-0.703-0.674 0.469-0.352-0.087-0.76 0-1.201l-1.746-1.611h-0.257c-0.575-1.718-2.343-1.816-3.446-3.164-1.501 1.234-0.586 4.395-3.223 4.474-1.26 0.653-2.028 1.942-3.252 2.578l-0.439-0.193c0.146-0.912 0.82-1.381 1.611-1.685 0.773-0.604 0.518-1.717 1.641-1.873l-0.264-0.893c0.498-0.281 0.828-0.68 1.201-1.119 0-0.732-0.088-1.482 0.307-2.051-0.102-0.322 0.212-0.586-0.19-0.762 0.264-0.762-0.791-1.293-0.067-1.934-0.812-0.674-1.128-1.729-1.31-2.754 0.322-0.469 0.088-1.271 0.674-1.51-0.536-0.189-0.536-0.893-0.85-1.244 0.121-0.586 0.121-1.26 0.85-1.351 0.558-0.237 1.578 0.04 1.437 0.853z"/>
	<path d="m45.586 40.805c0.038 0.702-0.352 1.384-0.381 2.128l0.82 0.117c-0.059 0.498-0.674 0.121-0.938 0.311l-0.891 3.703c0.217 0.35 1.273-0.117 1.389-0.144 0.029 0.571-0.059 0.437-0.289 0.642-1.117 0.063-3.256 0.674-3.021-0.235l0.938-3.966-0.82-0.106c-0.049-0.575 0.635-0.205 0.938-0.322 0.469-0.764 0.117-2.52 1.67-2.08 0.204 0 0.38 0 0.585-0.048z"/>
	<path d="m94.512 42.639c0.088 0.533-0.056 1.056-0.367 1.427-0.176 0.02-0.114 0.186-0.571 0.127-0.132-0.234-0.249-0.527-0.132-0.762-1.004 0.967-1.42 2.578-1.655 4.072-0.572 0.146-1.172 0.205-1.827 0.176 0.146-1.229 0.671-2.462 0.747-3.809-0.045-0.278-0.366-0.467-0.619-0.509 0.426-0.604 1.455-0.399 2.183-0.428 0.307 0 0.454 0.117 0.454 0.381 0 0.067-0.057 0.205 0.05 0.259 0.316-0.448 1.194-1.988 1.737-0.934z"/>
	<path d="m41.338 42.871c-0.059 0.56-0.088 1.194-0.635 1.498-0.303 0.088-0.512-0.07-0.489-0.381v-0.369c-0.962 0.984-1.406 2.578-1.643 4.06-0.544 0.117-1.17 0.117-1.745 0.176 0.085-1.348 0.762-2.666 0.674-4.102-0.099-0.18-0.293-0.205-0.498-0.18v-0.259c0.732-0.264 1.592-0.322 2.373-0.189l0.205 0.687c0.322-0.527 1.201-2.091 1.758-0.941z"/>
	<path d="m74.693 43.05l-0.234 1.697 0.234 0.061c-0.807 0.685-0.895 1.732-2.242 2.432-0.782 0.364-1.67 0.615-2.549 0.498-0.383-0.703-0.312-1.611-0.312-2.502-1.387 1.038-2.58 3.052-4.58 2.502 0.234-1.348 0.908-2.578 0.829-3.984-0.155-0.134-0.287-0.35-0.521-0.264v-0.318c0.776-0.121 1.64-0.26 2.446-0.121 0.154 1.318-0.469 2.462-0.674 3.691 0.879-0.498 1.816-1.506 2.5-2.443l0.488-1.174 1.436-0.192 0.132 0.117c-0.132 1.269-0.542 2.675-0.132 3.955 0.601 0.264 1.055-0.384 1.435-0.703 0.234-0.344 0.469-0.674 0.499-1.113-0.234-0.186-0.679-0.029-0.807-0.381 0.104-0.723 0.361-1.447 0.881-1.937 0.365-0.026 0.995-0.232 1.171 0.179z"/>
	<path d="m51.511 43.125c-0.183 1.009-1.208-0.11-1.765 0.511l-0.155 0.293c0.358 1.044 1.678 2.13 0.799 3.311-1.03 0.908-2.578 0.576-3.826 0.385-0.1-0.18 0.192-0.326 0.255-0.511 0.639 0.126 1.549 0.702 2.069-0.049-0.139-1.201-1.487-2.041-1.077-3.311 0.91-1.026 2.484-0.762 3.7-0.629z"/>
	<path d="m20.519 43.255c0.022 0.176-0.187 0.234-0.254 0.364-0.448-0.071-0.899-0.393-1.385-0.188-0.364 0.088-0.394 0.586-0.188 0.82 0.498 0.85 1.38 1.707 0.938 2.813-0.484 0.908-2.725 0.879-4.054 0.615 0.49-1.038 1.739 0.469 2.365-0.566 0.048-1.338-2.266-2.686-0.448-3.799 0.876-0.403 2.136-0.322 3.026-0.059z"/>
	<path d="m80.772 42.871c0.41 0.179 0.28 0.882 0.125 1.194-0.594 1.17-1.986 1.299-3.129 1.563-0.386 0.205-0.322 1.003-0.19 1.292 0.89 0.916 1.963-0.04 2.813-0.354-0.015 0.85-1.062 0.879-1.684 1.113-0.806 0.136-1.978 0.35-2.681-0.176-0.84-1.072-0.088-2.432 0.307-3.438 0.865-1.624 2.839-1.073 4.439-1.194zm-1.699 0.254c-0.879 0.365-1.113 1.449-1.26 2.181l0.85-0.176c0.469-0.41 1.083-0.832 0.938-1.641-0.001-0.292-0.324-0.318-0.528-0.364z"/>
	<path d="m35.274 43.461c0.791 0.731 0.41 2.313-0.147 3.223-1.03 1.385-2.959 1.259-4.546 1.054-0.376-0.134-0.786-0.392-0.897-0.817-0.211-1.001 0.053-1.995 0.58-2.815 1.201-1.378 3.921-1.421 5.01-0.645zm-2.227-0.176c-1.362 0.82-1.641 2.903-1.537 3.829 0.146 0.419 0.336 0.507 0.651 0.507 1.589-0.604 1.799-2.813 1.706-3.984-0.117-0.382-0.439-0.441-0.82-0.352z"/>
	<path d="m87.766 47.064c0.125 0.322 0.506 0.117 0.755 0.176l-0.121 0.385c-0.87 0.025-1.755 0.172-2.56 0.113-0.184-0.322 0.03-0.645 0.048-0.996-0.357 0.088-0.751 0.32-1.06 0.498-0.805 0.322-1.595 0.82-2.687 0.498-0.62-0.322-0.535-1.36-0.432-1.756 0.38-1.027 0.849-2.229 2.004-2.811 1.558-0.59 3.4 0.143 4.987-0.355l-0.934 4.248zm-2.058-3.809c-1.245 0.762-1.948 2.109-2.124 3.486-0.038 0.264 0.08 0.527 0.483 0.469 1.463-0.469 2.475-1.994 2.505-3.545-0.085-0.38-0.498-0.494-0.864-0.41z"/>
	<path d="m28.389 43.138c0.967 0.704-0.088 3.036-0.996 4.043-1.032 0.888-2.52 0.655-3.867 0.674-0.498 0.901-0.264 2.109-1.025 2.817l-1.49 0.083 0.64-2.9c-0.172-0.059-0.407-0.059-0.447-0.23l0.489-0.121c0.255-1.23 0.778-2.314 0.749-3.633-0.146-0.232-0.352-0.278-0.615-0.251 0.029-0.071 0.059-0.159 0.059-0.258 0.744-0.236 1.663-0.311 2.49-0.19 0.234 0.113 0.109 0.348 0.131 0.494 1.173-0.262 3.004-0.765 3.824-0.541l0.058 0.013zm-2.457 0.41c-1.662 0.732-2.085 2.464-2.256 4.042 0.494-0.058 0.992-0.117 1.402-0.351 1.07-0.732 1.517-1.984 1.559-3.252-0.065-0.292-0.387-0.439-0.705-0.439z"/>
</g>
</svg>
