<?xml version="1.0" encoding="UTF-8" standalone="no"?>
<!-- Generator: Adobe Illustrator 19.1.0, SVG Export Plug-In . SVG Version: 6.00 Build 0)  -->
<svg style="enable-background:new 0 0 96.9 60" xmlns="http://www.w3.org/2000/svg" xml:space="preserve" version="1.1" y="0px" x="0px" xmlns:xlink="http://www.w3.org/1999/xlink" viewBox="0 0 96.9 60">
<style type="text/css">
	.st0{fill:#5F5F5F;}
</style>
<g id="Logo">
		<path class="st0" d="m85.7 0c-22.2 3.5-45.4 9.3-62.7 15.4 0.4-2 2-6 3.6-8.9-7.4-2.1-10.9-2.5-10.9-2.5-3.1 7.4-5.9 18.5-6.8 28.8 11-6.1 21.3-11.4 31.8-16 12.6 3.9 26.1 9.9 38.2 16.3 0 0 0.8-0.6 2.5-1.3-6.5-5.7-19.4-13.9-31-19 11.7-4.6 23.9-8.6 37.5-11.9-1.3-0.6-2.2-0.9-2.2-0.9"/>
		<path class="st0" d="m13.5 51.6l-8.3-5.7 7.4-5h-3.7l-6.3 4.3v-4.3h-2.6v10.7h2.6v-4.8l6.8 4.8h4.1zm6.6-9.1h2.6v-1.6h-2.6v1.6zm3.7 0h2.6v-1.6h-2.6v1.6zm5.8 8.5c0.4-0.3 0.6-1 0.6-2v-8.2h-2.6v8.7h-8.7v-8.7h-2.6v8.2c0 1 0.2 1.7 0.6 2s1.1 0.5 2.2 0.5h8.3c1.1 0.1 1.8-0.1 2.2-0.5m15.7-2.3c0 0.4-0.1 0.7-0.4 0.8-0.2 0.1-0.5 0.2-0.9 0.2h-5.9v-2.7h5.9c0.4 0 0.7 0.1 0.9 0.2s0.4 0.4 0.4 0.8v0.7zm-0.1-4.3c0 0.5-0.4 0.8-1.2 0.8h-5.9v-2.6h5.9c0.8 0 1.2 0.3 1.2 0.8v1zm2.6 5.1v-1.4c0-1.2-0.6-1.8-1.9-2.1 1.2-0.2 1.8-0.8 1.8-1.8v-1.3c0-1.4-0.8-2.1-2.5-2.1h-9.7v10.7h8.9c2.3 0.1 3.4-0.6 3.4-2m5.2 2.1h11.1v-2h-8.4v-8.7h-2.7v10.7zm14.8 0h11.7v-2h-9v-2.6h5.2v-1.8h-5.2v-2.3h8.9v-1.9h-11.6v10.6zm26-6.8c0 0.6-0.4 0.9-1.2 0.9h-6v-3h6c0.8 0 1.2 0.3 1.2 0.9v1.2zm2.4 0.7v-2.5c0-1.4-0.8-2.1-2.5-2.1h-9.7v10.7h2.6v-4.1h4.9l2.7 4.1h2.7l-2.6-4.1c1.3-0.2 1.9-0.8 1.9-2"/>
		<path class="st0" d="m90.4 56.6c0.6 0 0.8 0.3 0.8 0.6s-0.2 0.6-0.8 0.6h-1.6v-1.2h1.6zm1.8 3.3l-0.9-1.5c0.6-0.2 0.9-0.7 0.9-1.2 0-0.6-0.4-1.3-1.5-1.3h-2.7v3.9h0.8v-1.4h1.5l0.9 1.4h1zm-12.6-1.5h-1.6l0.8-1.3 0.8 1.3zm1.8 1.5l-2.6-4.1-2.6 4.1h0.9l0.5-0.8h2.4l0.5 0.8h0.9zm-11.6 0v-0.7h-3.2v-1h2.6v-0.7h-2.6v-0.9h3.2v-0.7h-4v3.9h4zm-12.8 0.1l2.1-4.1h-0.9l-1.2 2.6-1.4-2.7-1.4 2.7-1.2-2.6h-1l2.1 4.1 1.4-2.7 1.5 2.7zm-11.1-4.1h-1l-2.6 2.1v-2.1h-0.8v3.9h0.8v-1l1.1-0.9 1.6 1.9h1l-2-2.4 1.9-1.5zm-13.1 0.7c0.6 0 0.8 0.3 0.8 0.6s-0.2 0.6-0.8 0.6h-1.6v-1.2h1.6zm1.7 3.3l-0.9-1.5c0.6-0.2 0.9-0.7 0.9-1.2 0-0.6-0.4-1.3-1.5-1.3h-2.6v3.9h0.8v-1.4h1.5l0.9 1.4h0.9zm-11.9-2c0 0.9-0.8 1.4-1.9 1.4s-1.9-0.6-1.9-1.4c0-0.9 0.8-1.4 1.9-1.4 1.1-0.1 1.9 0.5 1.9 1.4m0.9 0c0-1.2-1.1-2.1-2.8-2.1s-2.8 0.9-2.8 2.1 1.1 2.1 2.8 2.1 2.8-0.9 2.8-2.1m-13.8 2.1l2.1-4.1h-0.9l-1.2 2.6-1.4-2.7-1.4 2.7-1.2-2.6h-1l2.2 4.1 1.4-2.7 1.4 2.7z"/>
</g>
</svg>
