<?xml version="1.0" encoding="UTF-8" standalone="no"?>
<!-- Generator: Adobe Illustrator 16.0.0, SVG Export Plug-In . SVG Version: 6.00 Build 0)  -->
<!DOCTYPE svg  PUBLIC '-//W3C//DTD SVG 1.1//EN'  'http://www.w3.org/Graphics/SVG/1.1/DTD/svg11.dtd'>
<svg id="Lager_1" xmlns="http://www.w3.org/2000/svg" xml:space="preserve" height="60px" viewBox="0 0 302.776 60" width="302.78px" version="1.1" y="0px" x="0px" xmlns:xlink="http://www.w3.org/1999/xlink" enable-background="new 0 0 302.776 60">
	<path d="m152.22 30.758" fill="#5F5F5F"/>
<g fill="#5F5F5F">
	<path d="m144.75 31.06l-0.457-0.331c-1.677 2.233-3.991 4.253-7.035 4.253-1.762 0-3.283-0.671-4.718-1.82 0.211-1.284 0.346-2.866 0.346-3.776 0-2.555-0.672-5.478-3.657-5.478-2.015 0-3.044 1.545-3.044 3.284 0 1.284 0.493 2.253 1.029 3.044-0.417 6.149-7.91 18.372-14.916 18.372-1.679 0-2.498-1.209-2.498-2.91 0-5.537 8.645-16.133 11.668-20.999l-7.208 0.314c-1.352 1.94-4.194 6.865-7.298 11.849-4.515 7.253-8.149 10.955-11.507 10.955-1.583 0-2.179-1.292-2.179-2.791 0-5.656 8.389-15.521 11.583-20.327l-7.15 0.314c-2.433 3.641-7.06 9.551-9 14.655-0.433 0.433-0.851 0.851-1.284 1.258-4.603 4.249-9.297 6.592-13.076 6.592-3.891 0-6.147-2.671-6.147-6.507 0-0.851 0.121-1.642 0.299-2.433 4.746-1.045 19.477-3.885 19.477-10.402 0-2.724-2.313-4.269-6.149-4.269-8.447 0-20.133 9.054-20.133 17.699 0 4.854 3.164 8.224 8.323 8.224 5.004 0 10.78-1.761 16.988-7.357 0.417-0.373 0.791-0.731 1.149-1.104-0.179 0.85-0.298 1.641-0.298 2.373 0 3.164 1.528 5.683 4.925 5.683 5.417 0 9.313-4.339 12.298-8.667l0.119 0.169c-0.119 0.383-0.256 1.206-0.256 2.025 0 3.716 2.136 6.474 7.002 6.474 9.074 0 17.775-6.683 20.446-15.413 1.283 1.029 2.925 1.76 4.865 1.76 3.04 0 5.74-2.2 7.49-4.713zm-64.01-6.361c1.089 0 1.82 0.552 1.82 1.761 0 4.388-6.565 9.925-13.918 11.443 1.143-4.563 7.59-13.204 12.098-13.204z"/>
	<path d="m83.871 4.601c3.435 0 5.256 2.026 5.256 4.33 0 2.938-1.88 4.517-4.253 5.069v0.382c3.838-0.143 8.324-3.108 8.324-7.62 0-3.597-2.727-5.671-6.563-5.671-13.984 0-26.282 27.013-30.654 37.729h-0.134c0.134-0.915 0.194-1.956 0.194-2.902 0-5.451-0.91-10.604-1.896-15.529-0.977-4.94-1.94-9.639-1.94-14.237 0-4.507 1.03-4.925 1.03-5.597-0.001-0.355-0.239-0.555-0.679-0.555-1.291 0-4.799 1.94-5.888 9.313l-2.433 5.154c-5.417 11.057-15.641 33.75-30.177 33.75-3.716 0-5.947-2.042-5.597-5.877 1.702-0.358 2.612-1.413 2.612-3.164 0-1.642-1.403-2.91-3.343-2.91-2.493 0-4.134 2-4.134 4.746 0 5.164 4.373 8.414 9.238 8.414 17.282 0 27.625-25.636 33.833-38.471h0.119c0.298 11.611 4.686 22.684 4.686 34.43 0 1.522-0.208 3.164-0.373 4.712l0.985 0.153c9.358-24.327 20.715-45.649 31.787-45.649z"/>
	<path d="m296.33 30.609c-2.431 3.104-5.818 6.984-9.283 10.317-4.593 4.249-9.342 6.592-13.1 6.592-3.868 0-6.179-2.671-6.179-6.507 0-0.851 0.157-1.642 0.331-2.433 4.741-1.045 19.472-3.885 19.472-10.402 0-2.724-2.316-4.269-6.146-4.269-6.152 0-13.971 4.773-17.836 10.716-0.597 0.179-1.232 0.298-1.943 0.298-1.908 0-3.518-0.493-5.357-1.96 0.147-0.831 0.285-2.055 0.285-3.194 0.126-3.904-1.133-5.86-3.357-5.86-1.967 0-3.118 1.545-3.118 3.045 0 0.913 0.208 1.88 0.54 2.611-0.154 7.238-7.571 19.043-14.392 19.043-2.224 0-3.044-1.089-3.044-3.044 0-5.462 8.612-16.178 11.686-20.864l-7.345 0.314c-4.161 6.328-7.012 10.283-8.35 13.685-0.795 0.911-1.646 1.821-2.466 2.612-4.044 4.134-8.029 6.907-10.194 6.907-0.998 0-1.7-0.486-1.7-1.691 0-4.783 9.61-16.757 12.103-21.512l-7.028 0.358-1.68 2.731c-1.143-2.851-2.815-4.194-5.949-4.194-8.346 0-19.103 9.806-19.103 18.566 0 3.761 1.642 7.357 6.015 7.357 3.975 0 7.611-2.492 10.395-5.596h0.126c-0.179 0.328-0.266 1.086-0.266 1.761 0 2.134 1.701 3.835 4.535 3.835 4.103 0 8.375-3.044 12.624-7.357 0.731-0.731 1.435-1.462 2.079-2.194-0.227 0.851-0.346 1.699-0.346 2.549 0 4.838 3.393 6.596 7.791 6.596 9.179 0 17.82-7.085 19.977-15.592 1.641 1.149 3.499 1.88 5.426 1.88 0.492 0 0.998-0.06 1.53-0.177-1.093 1.967-1.769 4.013-1.769 6.071 0 4.854 3.174 8.224 8.295 8.224 5.011 0 10.788-1.761 17.018-7.357 4.397-3.976 7.423-7.694 10.207-11.414l-0.48-0.451zm-93.3 16.91c-2.73 0-3.342-2.278-3.342-4.86 0-5.451 6.999-17.959 13.192-17.959 2.567 0 3.334 1.435 3.334 3.863 0 5.076-7.44 18.571-13.18 18.956zm77.33-22.82c1.062 0 1.82 0.552 1.82 1.761 0 4.388-6.537 9.925-13.938 11.443 1.17-4.563 7.56-13.204 12.12-13.204z"/>
	<path d="m209.71 6.149c0-2.627-1.121-5.06-4.046-5.06-2.078 0-3.49 1.694-3.49 3.716 0 1.284 0.852 2.308 2.023 2.817-0.739 15.554-21.126 31.553-34.08 38.552l-0.138-0.12c10.107-13.506 8.557-29.564 15.524-38.265 1.94-2.433 5.657-4.396 5.657-5.688 0-0.696-0.331-1.013-1.025-1.013-1.753 0-8.944 4.507-12.336 10.95-0.937 1.731-2.026 4.512-3.37 6.333-4.313 5.775-13.862 16.058-23.789 24.64l-0.119-0.119c8.641-12.104 9.67-36.266 20.804-41.668l-0.296-0.553c-18.195 6.746-36.447 7.851-36.447 19.655 0 3.991 3.522 6.567 7.238 6.567 6.539 0 8.582-5.16 8.582-10.696h-0.822c0 5.692-1.984 9.472-6.491 9.472-2.764 0-4.581-2.433-4.581-5.071 0-10.808 18.222-14.39 26.132-17.076l0.12 0.135c-12.07 9.059-12.239 24.38-17.835 38.743-1.94 5.06-5.163 4.447-5.163 6.149 0 0.552 0.466 0.877 0.91 0.877 2.665 0 4.015-1.966 7.119-4.653 8.82-7.651 19.103-17.819 24.759-25.38l0.119 0.144c-3.164 9.708-4.778 20.864-11.133 29.89l0.612 0.406c11.09-4.195 45.58-26.893 45.58-43.684z"/>
</g>
<path d="m296.45 50.13c3.138 0 5.36-2.373 5.36-5.339 0-2.928-2.223-5.301-5.36-5.301-3.07 0-5.322 2.373-5.322 5.301 0 2.966 2.25 5.339 5.32 5.339zm0-1.173c-2.198 0-4.146-1.618-4.146-4.167s1.947-4.152 4.146-4.152c2.404 0 4.17 1.604 4.17 4.152s-1.77 4.167-4.17 4.167zm-2.22-7.274v6.193h1.371v-2.179h0.945l1.026 2.179h1.565l-1.229-2.433c0.802-0.243 1.306-0.91 1.306-1.761 0-1.089-0.733-2-2.355-2h-2.63zm1.37 2.851v-1.674h0.477c0.666 0 1.58-0.086 1.58 0.849 0 0.825-0.914 0.825-1.476 0.825h-0.58z" fill="#5F5F5F"/>
<rect y="56.69" width="302.78" height="3.31" fill="#5F5F5F"/>
</svg>
