<?xml version="1.0" encoding="UTF-8" standalone="no"?>
<!-- Generator: Adobe Illustrator 16.0.0, SVG Export Plug-In . SVG Version: 6.00 Build 0)  -->
<!DOCTYPE svg  PUBLIC '-//W3C//DTD SVG 1.1//EN'  'http://www.w3.org/Graphics/SVG/1.1/DTD/svg11.dtd'>
<svg id="Ebene_1" xmlns="http://www.w3.org/2000/svg" xml:space="preserve" height="60px" viewBox="0 0 423.745 60" width="423.74px" version="1.1" y="0px" x="0px" xmlns:xlink="http://www.w3.org/1999/xlink" enable-background="new 0 0 423.745 60">
<g fill="#5F5F5F">
	<path clip-rule="evenodd" d="m399.38 13.511c5.556 0 8.625 2.339 8.625 7.392v1.992c0 4.65-2.485 7.632-8.625 7.632h-27.83v-17.016h27.83zm-27.83 45.373v-15.95h31.989c16 0 20.207-9.403 20.207-18.204v-5.342c0-9.135-3.797-18.271-20.207-18.271h-47.71v57.767h15.72z" fill-rule="evenodd"/>
	<path d="m75.755 46.521c-2.693 10.682-11.566 13.479-23.496 13.479h-27.914c-11.93 0-20.803-2.797-23.496-13.479h74.906z"/>
	<path d="m76.604 38.427h-15.85v-17.514c0-4.598-3.013-7.433-7.676-7.433h-29.552c-4.664 0-7.676 2.835-7.676 7.433v17.514h-15.85v-17.235c0-17.143 9.937-21.192 24.345-21.192h27.914c14.396 0 24.345 4.049 24.345 21.192v17.235z"/>
	<path d="m114.78 1.117v36.729c0 4.586 3.054 7.557 7.797 7.557h32.757v13.48h-32.07c-14.397 0-24.333-4.05-24.333-21.2v-36.566h15.843z"/>
	<polygon points="200.78 58.884 200.78 39.606 233.54 1.117 214.52 1.117 193.24 27.288 171.87 1.117 151.64 1.117 183.88 39.604 183.88 58.884"/>
	<polygon points="260.67 58.884 260.67 16.784 283.17 58.884 293.56 58.884 316.06 16.784 316.06 58.884 331.69 58.884 331.69 1.117 309.27 1.117 288.94 38.838 268.58 1.117 245.28 1.117 245.28 58.884"/>
</g>
</svg>
