<svg id="Layer_1" data-name="Layer 1" xmlns="http://www.w3.org/2000/svg" viewBox="0 0 158.16 60"><defs><style>.cls-1{fill:#60605f;}</style></defs><title>snickers</title><polygon class="cls-1" points="59.95 49.4 62.46 49.4 63.47 55.85 63.51 55.85 64.8 49.4 67.14 49.4 68.33 55.85 68.35 55.85 69.52 49.4 71.54 49.4 69.27 59.79 67.02 59.79 65.8 52.88 65.76 52.88 64.36 59.79 62.1 59.79 59.95 49.4"/><path class="cls-1" d="M75.62,54.59c0-2,0-3.47,1.22-3.47S78,52.55,78,54.59s0,3.48-1.21,3.48-1.22-1.43-1.22-3.48m-2.83,0c0,2.66,1,5.41,4,5.41s4-2.75,4-5.41-1-5.4-4-5.4-4,2.75-4,5.4"/><path class="cls-1" d="M85.64,51.32h0.43c0.88,0,1.71.09,1.71,1.17,0,0.84-.64,1.14-1.63,1.14H85.64V51.32ZM83,59.79h2.63V55.3h0.87l1.3,4.5h2.6l-1.73-5a2.58,2.58,0,0,0,1.73-2.4c0-2-1.52-2.95-3.49-2.95H83v10.4"/><polygon class="cls-1" points="92.37 49.4 95 49.4 95 53.88 95.03 53.88 97.57 49.4 100.15 49.4 97.84 52.83 100.11 59.79 97.53 59.79 96.1 55.3 96.09 55.3 95 56.93 95 59.79 92.37 59.79 92.37 49.4"/><polygon class="cls-1" points="101.34 49.4 103.85 49.4 104.87 55.85 104.89 55.85 106.18 49.4 108.52 49.4 109.71 55.85 109.74 55.85 110.91 49.4 112.93 49.4 110.67 59.79 108.42 59.79 107.19 52.88 107.15 52.88 105.75 59.79 103.49 59.79 101.34 49.4"/><polygon class="cls-1" points="114.7 49.4 121.24 49.4 121.24 51.41 117.34 51.41 117.34 53.52 119.96 53.52 119.96 55.53 117.34 55.53 117.34 57.69 121.24 57.69 121.24 59.79 114.7 59.79 114.7 49.4"/><path class="cls-1" d="M126.32,51.62h0l0.76,4.23h-1.68Zm-3.88,8.17h2.18l0.44-2.1h2.42l0.4,2.1h2.66l-2.22-10.4h-3.45Z"/><path class="cls-1" d="M135,51.32h0.43c0.88,0,1.71.09,1.71,1.17,0,0.84-.64,1.14-1.64,1.14H135V51.32Zm-2.63,8.47H135V55.3h0.88l1.3,4.5h2.6l-1.74-5a2.59,2.59,0,0,0,1.74-2.4c0-2-1.52-2.95-3.49-2.95h-3.9v10.4"/><path class="cls-1" d="M143.06,11a3.11,3.11,0,0,1,3.09,3.25,3.09,3.09,0,1,1-6.17,0A3.09,3.09,0,0,1,143.06,11m0-.76a3.81,3.81,0,0,0-3.8,4,3.81,3.81,0,1,0,7.61,0,3.84,3.84,0,0,0-3.81-4"/><path class="cls-1" d="M142.39,16.41h-1V12h1.66c1.16,0,1.8.32,1.8,1.33a1.09,1.09,0,0,1-1.21,1.18l1.15,1.9h-1l-1-1.85h-0.44v1.85m0-2.59h0.82a0.59,0.59,0,0,0,.72-0.58c0-.41-0.31-0.5-0.76-0.5h-0.79v1.08"/><path class="cls-1" d="M59.92,0L57.06,7.65H42c-2,0-2.27.34-4.19,5.76C37.05,15.6,33.43,25.5,29.57,36c-3.4,8.7-4.29,9.13-14,9.1H0l2.57-8.25H18.18c1.65,0,2.33-.31,4-4.95C22.7,30.56,30.46,9.1,30.46,9.1c3.4-8.7,4.29-9.13,14-9.1H59.92Z"/><path class="cls-1" d="M45.43,20.53s-0.39,1.05-.69,1.79a4.52,4.52,0,0,1,3.68-1.79h3.66c3.18,0,2.09,2.72,1.32,4.87-2.31,6.45-7.2,19.67-7.2,19.67H39.64S44.2,33.19,46.2,27.18c0.2-1.92-2.63-1.64-3.39.59-0.53,1.93-6.58,17.3-6.58,17.3H29.33l8.94-24.54h7.16"/><polygon class="cls-1" points="70.41 7.52 68.11 13.75 60.69 13.75 62.98 7.53 70.41 7.52"/><polygon class="cls-1" points="65.45 20.53 56.16 45.06 48.74 45.06 57.96 20.53 65.45 20.53"/><path class="cls-1" d="M155.38,28.26h-5c-3.15,0-3.19,1.65-4.25,4.77-3.17,9.39-3.65,12-7.56,12h-9.24L132,37.68h1.77a3.81,3.81,0,0,0,3.81-2.33c1.55-4.21,2.49-7,4-11.24,1.08-3,2.93-3.56,6.16-3.61h10.39Z"/><polygon class="cls-1" points="103.29 0 92.7 28.19 99.06 20.5 108.14 20.5 97.65 33.48 98.01 45.04 90.3 45.04 90.06 35.84 86.66 45.04 79.07 45.04 95.11 0 103.29 0"/><path class="cls-1" d="M82.8,20.5c1.77,0,2.23.76,1.49,3.06l-1.88,4.89h-6.8c0.31-.87.89-2.13-0.26-2.6-1.41-.22-2.2.94-2.56,2C71.5,31.7,69.65,37,69.5,37.54c-0.38,1.18-.57,2.38.51,2.38s1.71-1.11,2.09-2.27c0.08-.22.14-0.36,0.14-0.36,0.63,0,3.86,0,7,0-1.44,4.3-2,7.82-6.21,7.76-3.51,0-8.1,0-10.18,0-3.24,0-3.46-1.32-2.64-3.34,2.64-6.57,5.19-13.39,6.47-17.08,1-2.92,1.54-4.14,4.62-4.12H82.8"/><path class="cls-1" d="M136,20.5c-0.33,1-.32,1.33-0.67,2.29a7,7,0,0,1,5.44-2.29c-1,3-3.14,8.36-3.14,8.36a8.33,8.33,0,0,0-3,.32c-2,.75-2.5,3-3.77,6.14-0.5,1.29-3.49,9.72-3.49,9.72h-7.18l8.88-24.54H136"/><path class="cls-1" d="M123.42,20.5c4,0,3,2.32,2.15,4.69C124.2,28.69,123.7,30,122,34.43h-10.4s-0.84,2.53-1.47,4.43c-0.65,2.06,2,2.4,2.82,0,0.21-.6.5-1.56,0.5-1.56,3.66,0,5.24,0,7.69,0-2.54,6.5-2.35,7.76-5.22,7.76H103.06c-3.11.07-2.19-2-1.76-3.34q3.47-9.2,6.91-18.39c0.85-2.26,1.22-2.81,5.72-2.81h9.49m-6.91,7.21c0.49-2-1.92-2.63-2.64-.49L113,30h2.91s0.31-1,.59-2.26"/></svg>