<?xml version="1.0" encoding="utf-8"?>
<!-- Generator: Adobe Illustrator 21.0.2, SVG Export Plug-In . SVG Version: 6.00 Build 0)  -->
<svg version="1.1" id="Layer_1" xmlns="http://www.w3.org/2000/svg" xmlns:xlink="http://www.w3.org/1999/xlink" x="0px" y="0px"
	 viewBox="0 0 640 480" style="enable-background:new 0 0 640 480;" xml:space="preserve">
<style type="text/css">
	.st0{fill:#C2353A;}
</style>
<g>
	<g id="XMLID_1_">
		<g>
			<path class="st0" d="M533.9,317.2c1-0.6,2.4-0.5,4.3,0.3c-3.1,3.7-6,7.6-9.3,11.2c-8.5,9-16.3,18.9-25.9,26.5
				c-11.1,8.9-25.1,12.2-39,14.3c-3.4,0.5-6.8,1.3-10.2,1.2c-14-0.4-15.3-5.5-17.8-17.8c-0.9-4.5-1.4-9-2-13.5l0.1,0.1
				c2.6-7.1,2.6-8.5-0.1-13.5c-4.1,5.6-8,11-12,16.5c-2.8,2.6-5.4,5.3-8.4,7.7c-6.7,5.3-13.7,3.8-20.6,0.3c-1.8-1.5-3.6-3-6.5-5.3
				c-2.6,6.1-5.4,11-6.7,16.3c-2.1,8.2-6,14.4-14.8,15.3c-8.9,0.9-15.7-3.7-20.6-10.6c-3.8-5.2-6.9-11-10.3-16.5c0,0,0,0,0,0
				c-1-3-2-6-3-9c0,0,0,0,0,0c-2.8-15.1-6.4-29.9-14.2-43.3c-0.2-0.3-0.4-0.6-0.6-0.8c-4.4-5.6-4.3-5.4,3.1-7.1
				c1.8-0.4,3.5-2.2,4.9-3.7c2.3-2.6,4.6-3.9,8.2-2.2c3,1.4,6.4,2.1,9.6,3.2c0,0,0,0,0,0c1.9,1.1,3.9,2.1,5.8,3.3
				c6.5,4,7.7,10.2,8.4,17.3c1.1,11.8-0.3,23.9,4.8,35.1c1,2.3,2.3,4.8,4.1,6.6c4.1,4.4,9.4,3.3,10.8-2.6c2.2-9.3,3.1-18.9,0.8-28.4
				c-2.1-9-0.7-11.5,7.3-16c2.8-1.5,5-4.1,7.4-6.3c5.9-5.5,9.4-5.5,14.6,0.5c1.1,1.3,1.5,3.9,1,5.5c-2.5,8.3-6.5,16.3-5,25.5
				c0.7,4.1,0.8,8.2,1.1,12.3c0.3,4.3,3.3,4.9,6.4,3.6c3.3-1.4,6.4-3.4,9.1-5.8c4.1-3.6,7.9-7.6,11.7-11.6c1.2-1.3,1.8-3,3.7-3.9
				c1.4-1.7,3.5-3.3,4-5.2c4.4-16.7,13.3-30.9,25-43.2c3.9-4.1,7.9-8.4,14.5-9.4c4.6-0.7,8.1,0.4,10.7,3.4c4.3,4.8,8.1,10,11.8,15.2
				c0.9,1.3,1.4,3.7,0.8,5.2c-3.1,8.5-6.5,16.8-10,25.1c-0.5,1.3-1.8,2.7-3,3.2c-8.9,3.3-17.7,6.9-26.8,9.3
				c-5.6,1.5-11,8.7-9.7,15.5c2.4,12.4,5.1,10.2,17.8,8.4c20.4-3,38.1-12.4,54.4-24.6C526.8,322,530.3,319.5,533.9,317.2z
				 M485.5,301.9c-0.5-0.1-1-0.3-1.4-0.3c-9.8-0.2-11.7,10.3-19.2,13.4C473.3,317.2,485,309.1,485.5,301.9z"/>
			<path class="st0" d="M511.7,264.9c-0.3,0.4-0.7,0.7-1,1.1c-7.4-4.2-14.9-8.4-23.3-13.1c-12.1,0.7-20.3,11.8-32.8,15.4
				c3.5-4.2,6.9-8.5,10.3-12.7l0,0c3.3-3.1,6.4-6.4,9.8-9.3c3.1-2.7,6.2-5.6,9.8-7.2c1.3-0.6,4.2,2.2,6.3,3.5
				c6.3,6.4,12.7,12.9,18.9,19.3C510.7,262.7,511.1,263.9,511.7,264.9z"/>
			<path class="st0" d="M507.7,214.4c0.7,0.4,0.8,3,0.5,4.4c-0.3,1.1-1.6,2.1-2.7,2.7c-10.1,5.4-20.3,10.6-30.4,16
				c-1.2,0.7-2.1,1.9-3.1,2.9v0c-5.7,5.6-13.7,9.1-15.1,18.5c-0.7-0.3-1.4-0.6-2.1-1c0.5-2.5,0.6-5.2,1.7-7.4
				c5.4-11.7,14.9-20,24.5-28.1c5.5-4.7,10.9-9.7,18.4-10.5C502.1,211.7,505.1,213.1,507.7,214.4z"/>
			<path class="st0" d="M491.2,242.3c0,0.1-0.1,0.2-0.2,0.3l0,0l0,0C491,242.4,491.2,242.3,491.2,242.3z"/>
			<path class="st0" d="M472.2,240.7c0,0-0.2-0.1-0.3-0.2l0.1-0.1C472.1,240.6,472.2,240.7,472.2,240.7z"/>
			<path class="st0" d="M465.1,255.5L465.1,255.5L465.1,255.5c-0.2,0-0.2-0.1-0.3-0.2C464.8,255.3,465,255.4,465.1,255.5z"/>
			<path class="st0" d="M342.2,286.3c0,0-0.1,0.1-0.2,0.3c0,0-0.1,0-0.1-0.1C342,286.4,342.2,286.3,342.2,286.3z"/>
			<path class="st0" d="M342,286.5C342,286.5,342,286.5,342,286.5L342,286.5C342,286.5,342,286.5,342,286.5z"/>
			<path class="st0" d="M334.1,349.5C334,349.5,334,349.5,334.1,349.5C334,349.5,334,349.5,334.1,349.5L334.1,349.5z"/>
			<path class="st0" d="M334,349.4C334,349.5,334,349.5,334,349.4c-0.1,0.2-0.2,0.2-0.2,0.3C333.8,349.7,333.9,349.5,334,349.4z"/>
			<path class="st0" d="M331.1,340.5C331,340.5,331,340.5,331.1,340.5C331,340.5,331,340.5,331.1,340.5L331.1,340.5z"/>
			<path class="st0" d="M331,340.4c0,0,0,0.1,0,0.1c-0.1,0.1-0.2,0.1-0.2,0.2C330.8,340.7,330.9,340.5,331,340.4z"/>
			<path class="st0" d="M328.2,333c-0.8,5-0.9,10.3-2.6,14.9c-3.6,9.7-7.3,19.6-15.9,26.4c-5,3.9-9.8,5.7-16.8,5
				c-18.4-2-25.2-14.9-30.8-29.6c-3.6-9.6-8.7-17.8-19.3-20.6c-7.7-2.1-14.2,1.6-20.3,5.6c-6.7,4.4-8.5,11.8-10.4,19
				c-0.6,2.2-0.8,4.5-1.2,6.8c-2.6,2.6-5.4,2.5-7.6-0.2c-3.3-4.2-6.6-8.6-9-13.3c-2.1-4.2-3.1-9-4.5-13.6c-1.3-4.2-2.4-8.5-3.4-11.8
				c-12.9,11.3-25.9,23-39.4,34.2c-13.4,11.1-25.7,24.1-44.3,27.9c2.1-2.6,4-5.4,6.3-7.8c19.5-19.6,39.2-39,58.6-58.8
				c8.2-8.3,15.7-17.2,14.1-30.2c-0.7-5.7-1.7-11.4-2.4-17.1c-0.9-7.4-2.3-14.7-2.5-22.1c-0.6-20.6-1.5-41.2-0.9-61.8
				c0.6-18.3,2.8-36.5,5-54.7c1.2-9.8,8.4-16.6,14.5-23.7c9.6-11,13.2-9.9,20.2,1.8c9.7,16.3,15.9,33.1,17.3,51.9
				c0.7,9.5,2.6,19,2.8,28.5c0.3,25.3-5.5,49.4-16.1,72.3c-6.5,14-13.9,27.6-20.6,41.6c-1.2,2.6-1.1,6.1-0.9,9.2
				c0.2,2.9,1.4,5.7,2.1,8.6c2.7,11,8.4,11.6,16.2,4.5c10.8-9.8,23.8-13.5,37.1-15.9c7.3-1.3,15.3,0,20.4,7.9
				c3.1,5,7.9,8.9,11.8,13.4c6.1,7.2,9.7,15.5,11.1,24.9c0.2,1.4,0.9,2.8,1.5,4.6C313,356.2,317.7,342,328.2,333z M204.8,262
				c7.3-21.4,13.1-43.1,11.2-66.1c-1.2-15.1-2.2-30.3-4.2-45.3c-1.1-8.5-3.2-17.1-8.8-24.2l0.1,0.1c-0.9-2-1.8-4-2.9-6.2
				c-6.4,4.9-11.3,10.3-12,17.4c-1.8,20.2-2.9,40.5-4.2,60.8c-0.1,1.8-0.6,3.6-0.6,5.4c0,8.8-0.4,17.6,0.2,26.4
				c0.6,9,2,17.9,3.5,26.8c1.4,8.5,3.3,16.8,5,25.2c0.7,0.1,1.3,0.3,2,0.4C197.7,275.9,202.3,269.2,204.8,262z"/>
			<path class="st0" d="M211,360.4c0.1,0.1,0.2,0.2,0.2,0.3C211.2,360.7,211.1,360.6,211,360.4L211,360.4z"/>
			<path class="st0" d="M211,360.4L211,360.4C210.9,360.5,210.9,360.5,211,360.4C211,360.5,211,360.5,211,360.4z"/>
			<path class="st0" d="M187,174.9L187,174.9c0,0.2-0.1,0.2-0.2,0.3C186.8,175.2,186.9,175.1,187,174.9z"/>
		</g>
		<g>
		</g>
	</g>
</g>
</svg>
